<svg width="26" height="18" viewBox="0 0 26 18" fill="none" xmlns="http://www.w3.org/2000/svg">
<path d="M25.0639 8.45352L17.7003 0.271638C17.5432 0.0981824 17.3239 0 17.0915 0H12.1824C11.86 0 11.5671 0.18982 11.4346 0.484367C11.3037 0.780552 11.3577 1.12583 11.5737 1.36474L18.4448 9.00007L11.5737 16.6338C11.3577 16.8743 11.302 17.2196 11.4346 17.5141C11.5671 17.8103 11.86 18.0001 12.1824 18.0001H17.0915C17.3239 18.0001 17.5432 17.9003 17.7003 17.7301L25.0639 9.54826C25.3438 9.23735 25.3438 8.7628 25.0639 8.45352Z" fill="white"/>
<path d="M14.4272 8.45352L7.06353 0.271638C6.90644 0.0981824 6.68717 0 6.4548 0H1.54567C1.2233 0 0.930393 0.18982 0.797847 0.484367C0.666937 0.780552 0.720937 1.12583 0.936939 1.36474L7.80809 9.00007L0.936939 16.6338C0.720937 16.8743 0.6653 17.2196 0.797847 17.5141C0.930393 17.8103 1.2233 18.0001 1.54567 18.0001H6.4548C6.68717 18.0001 6.90644 17.9003 7.06353 17.7301L14.4272 9.54826C14.7071 9.23735 14.7071 8.7628 14.4272 8.45352Z" fill="white"/>
</svg>
