<svg id="Layer_1" data-name="Layer 1" xmlns="http://www.w3.org/2000/svg" viewBox="0 0 295 126.7"><defs><style>.cls-1{fill:#c0c6d9}</style></defs><path class="cls-1" d="M60.65 50.14a.62.62 0 0 0-.43-.25.68.68 0 0 0-.34.11c-1.24 1-3 5.07-4.3 10.48h1.22l7.39.1c-.65-2.48-1.25-4.6-1.83-6.31a21.28 21.28 0 0 0-1.71-4.13z"/><path class="cls-1" d="M63.4 39.8a23.15 23.15 0 1 0 23.15 23.14A23.15 23.15 0 0 0 63.4 39.8zM80 63.3a1.29 1.29 0 0 1-.58.13H68.29l.29 1.23c.6 2.6 2.19 9.5 3.89 9.5h.09c1.33 0 2-1.92 3.49-6.1l.81-2.25v-.2a.53.53 0 0 1 .67-.33.52.52 0 0 1 .32.67v.2c-.16.51-.31 1.19-.51 2-.88 3.66-2.22 9.19-5.64 9.19-2.21 0-3.53-3.54-4.09-5.07A88.53 88.53 0 0 1 65 63.51H54.87l-2.1 6.69a1.1 1.1 0 0 1-1.48.33 1 1 0 0 1-.49-.89l.13-.75c.29-1.73.63-3.52 1-5.32h-4.26A1.64 1.64 0 0 1 46.29 62a1.59 1.59 0 0 1 1.32-1.58 2.09 2.09 0 0 1 .5 0h4.64c2.22-9 4.79-13.63 7.66-13.63s5.26 7 7 13.86c3.74 0 7.73.2 11.62.48h.39a1.24 1.24 0 0 1 1 1.47 1.43 1.43 0 0 1-.42.7zm19.39 5.38-1.83 4.54h-5.34l10.16-23.65h4.7l10.11 23.65h-5.29l-1.84-4.54zm5.29-13.16-3.46 8.62h7zm42.59 8.58v9.1h-4.86v-8.69c0-2.63-1.29-4.05-3.54-4.05a3.73 3.73 0 0 0-3.1 1.83c0 .6.12 1.2.13 1.81v9.1h-4.8v-8.69c0-2.63-1.29-4.06-3.58-4.06a3.85 3.85 0 0 0-3 1.87v10.87h-4.8V56.63h4.82v1a5.32 5.32 0 0 1 4.08-1.48 6.9 6.9 0 0 1 5.38 2.32 7.94 7.94 0 0 1 6-2.41c4.05 0 7.27 3.2 7.27 8.04zm21.11.83a8.42 8.42 0 0 1-12.94 7.39v8.87h-4.81V56.63h4.81v.9a8.59 8.59 0 0 1 4.71-1.3 8.37 8.37 0 0 1 8.23 8.5zm-4.73 0a4.44 4.44 0 0 0-4.27-4.6 4.61 4.61 0 0 0-3.92 1.94v5.32a4.68 4.68 0 0 0 3.92 1.9 4.43 4.43 0 0 0 4.3-4.56zm12.24 8.29h-4.81V48.67h4.81zm4.33-22.44a3 3 0 0 1 5.78 0 3 3 0 0 1-5.78 0zm5.32 5.91v16.53h-4.82V56.63zM203 73a12.65 12.65 0 0 1-4.44.77c-4 0-6.63-2.84-6.63-7.13V60.7h-3.51v-4.07H192v-5.91h4.77v5.91h5.91v4h-5.91v5.97a2.56 2.56 0 0 0 2.23 2.76 2.38 2.38 0 0 0 .65 0 11.67 11.67 0 0 0 2.81-.44zm19.35.22h-4.82V72a7.45 7.45 0 0 1-4.75 1.76c-4.34 0-7.25-3.15-7.25-8v-9.13h4.8v8.69c0 2.64 1.33 4.06 3.58 4.06a5 5 0 0 0 3.63-2.07V56.63h4.82v16.59zm20.43 0H238v-.9a8.5 8.5 0 0 1-4.7 1.31 8.63 8.63 0 1 1 4.7-16.1v-8.86h4.82zM238 67.57v-5.29a4.64 4.64 0 0 0-3.91-1.91 4.58 4.58 0 0 0 0 9.14 4.65 4.65 0 0 0 3.91-1.94zm24.29-1.42h-12.21a4 4 0 0 0 4.29 3.46 3.06 3.06 0 0 0 2.81-1.24h5a7.86 7.86 0 0 1-7.92 5.43 8.56 8.56 0 0 1-8.87-8.24v-.63a8.46 8.46 0 0 1 8-8.87h.77a8 8 0 0 1 8.29 7.72 6.4 6.4 0 0 1 0 .76 8.74 8.74 0 0 1-.16 1.61zm-12.18-2.84h7.52a3.33 3.33 0 0 0-3.42-3.22 3.9 3.9 0 0 0-4.1 3.22z"/></svg>