<svg version="1.1" id="Layer_1" xmlns="http://www.w3.org/2000/svg" x="0" y="0" viewBox="0 0 295 126.7" xml:space="preserve"><style>.st0{fill:#c0c6d9}</style><g id="CTiCRz.tif"><path class="st0" d="M62.6 61c.2-1.3.5-2.6.7-3.9.5-2.3 1.5-4.5 2.7-6.5.3-.5.6-.7 1.1-.7h3.3c.2 0 .4 0 .7.1-.6.9-1.1 1.6-1.6 2.4-4.1 7.3-4.2 14.6.1 21.9 2.6 4.4 6.4 7.3 11.2 8.9.9.3 1.5.7 1.9 1.6.5 1 1.1 1.9 1.7 2.9 0 .1 0 .2.1.4-.5 0-.9-.1-1.3-.1C72.5 86.2 64 77.3 62.7 66.4c0-.2-.1-.3-.1-.5V61zm24 27.4c-.8-1.3-1.6-2.6-2.4-4.1.4 0 .6-.1.9 0 6 .7 11.4-.8 16-4.6 4.2-3.4 6.7-7.9 7.5-13.3.4-2.5.3-4.9-.2-7.4-.1-.4 0-1 .2-1.4.5-1 1.1-1.9 1.6-2.9.2-.3.4-.6.7-1.1.2.5.3.7.4 1 3 9.1 1.7 17.4-4.4 24.8-4.2 5.1-9.7 7.9-16.2 8.8-.2 0-.3.1-.5.1-1.2.1-2.4.1-3.6.1zm79.9-28.6c1.7-1.7 3.6-2.6 5.7-2.6 2.2 0 4 .8 5 3 .8-.7 1.6-1.4 2.4-1.9 2-1.2 4.1-1.5 6.3-.6 1.8.7 2.6 2.3 2.7 4.1.1 4.5 0 8.9 0 13.4 0 .5-.2.7-.7.7h-3.5c-.7 0-.7-.4-.7-.9V64.5c0-2.4-1.5-3.2-3.6-2.6-.8.2-1.5.7-2.1 1.3-.3.3-.5.9-.5 1.3v10.4c0 1 0 1-1 1h-2.9c-.7 0-1-.2-1-.9V64.6c0-.7-.2-1.4-.5-2-.4-.8-1.2-.9-2.1-.9-1.4 0-2.4.7-3.2 1.7-.2.3-.3.7-.3 1.1v10.4c0 1 0 1-1.1 1h-2.8c-.7 0-1-.2-.9-.9V58.5c0-.5.2-.8.8-.8h3.3c.6 0 .8.3.8.9-.1.2-.1.6-.1 1.2zm31.4 13.9v8c0 .7-.2 1-.9 1h-3.1c-.7 0-.9-.2-.9-.9V58.7c0-1 0-1.1 1-1.1h2.9c.7 0 1 .2.9.9v1.1c.2-.1.3-.2.4-.2 3.6-3.6 10-2.5 12 2.5 1.6 4 1.5 8-1 11.6-2.5 3.6-7.7 3.9-10.9.9 0-.3-.1-.4-.4-.7zm8.6-6.9c-.1-1.8-.8-3.5-1.7-4.3-1.9-1.7-5.1-.9-6.3 1.6-.9 2-.8 4.1.4 5.9.9 1.3 2.3 1.9 3.9 1.8 1.4-.1 2.4-.9 2.9-2.2.4-.9.5-1.8.8-2.8zm25.9 0c.1 5.1-3.4 9.5-9.4 9.5-5.8 0-9.5-3.9-9.6-9.5-.1-5.5 4-9.5 9.5-9.5 5.6-.1 9.5 3.9 9.5 9.5zm-4.9-.6c0-.8-.3-2-1.1-3-1.6-2.2-5.3-2.1-6.8.1-1.3 1.9-1.4 4-.5 6 1 2.4 4 3.3 6.2 1.9 1.6-1 2.1-2.7 2.2-5zm-82.1 2.1c.1 1.9 1.7 3.6 3.7 3.9 1.9.3 3.7-.1 5.3-1.2.5-.4.8-.3 1.1.2.4.7.8 1.3 1.3 1.9.3.5.2.7-.2 1-1.5 1.1-3.2 1.7-5 2-2.9.4-5.6-.1-8-1.9-2.1-1.6-3.1-3.8-3.3-6.4-.3-2.7.3-5.2 2.1-7.4 2.4-2.8 5.4-3.7 8.9-3.1 3.4.6 5.6 2.8 6.5 6.1.4 1.2.5 2.5.6 3.8.1.9 0 1-1 1h-11.3c-.2.1-.4.1-.7.1zm4-3.4h3.4c.9 0 1-.2.7-1-.7-1.9-2.1-2.8-4.5-2.7-1.8.1-3.2 1.3-3.7 3-.1.5.1.7.5.7h3.6zm-20.1.7v-9.1c0-.7-.2-.9-.9-.9H123c-.6 0-.9-.2-.9-.9v-3.1c0-.7.2-.9.9-.9h17.8c.7 0 1 .2 1 1-.1.9 0 1.9 0 2.8 0 1 0 1-1 1h-5c-1 0-1.1 0-1.1 1v18c0 1.1 0 1.1-1.2 1.2h-3.4c-.6 0-.8-.2-.8-.8v-9.3zM67.6 48.3c.6-.8 1.2-1.6 1.9-2.3 4.2-4.2 9.3-6.8 15.3-7.5 5.1-.6 10 .3 14.6 2.7 4.5 2.4 8 5.8 10.4 10.3.1.2.2.6.1.8l-2.1 3.6c0 .1-.1.1-.3.2-.1-.3-.2-.5-.4-.7-3.2-7.1-8.6-11.4-16.2-12.7-6.2-1-11.9.5-16.7 4.6-1.3 1.1-2.5 1.5-4 1.4-.9-.1-1.7 0-2.6 0v-.4z"/><path class="st0" d="M84.5 64.4c.3-.2.5-.4.7-.6 3.2-3.2 6.4-6.4 9.7-9.6.7-.7.9-.7 1.5 0l3.1 3.1c.6.6.6.8 0 1.4L85.3 72.9c-.5.5-.9.5-1.4 0-2.5-2.5-5.1-5-7.6-7.5-.6-.6-.6-.8 0-1.5l3.1-3.1c.6-.6.8-.6 1.4 0l3.1 3.1c.1 0 .3.2.6.5z"/></g></svg>