<svg width="154" height="30" viewBox="0 0 154 30" fill="none" xmlns="http://www.w3.org/2000/svg">
<path d="M9.71561 29.5376H3.9367V14.9776H0V10.2372H3.93655V6.86399C3.93655 2.86678 5.67768 0 11.441 0C12.6598 0 14.5735 0.248315 14.5735 0.248315V4.65008H12.5635C10.5155 4.65008 9.71592 5.27971 9.71592 7.02039V10.2372H14.4969L14.0711 14.9776H9.71571L9.71561 29.5376ZM22.9754 9.85833C22.8912 9.85833 22.8045 9.86144 22.7189 9.86361C17.3603 9.86361 14.9086 13.9374 14.9086 19.7203C14.9086 27.0051 18.0888 29.9207 22.7607 29.9207C25.4337 29.9207 27.1899 28.7836 28.2573 26.6615V29.5397H33.7539V10.2392H28.2573V13.2074C27.3857 11.2977 25.5805 9.88096 22.9754 9.85833ZM24.3731 14.4189C26.6236 14.4189 27.9745 16.0056 27.9745 18.7044L27.9796 21.4608C27.9796 23.2797 26.864 25.4077 24.3731 25.4077C20.5436 25.4077 20.6458 21.2286 20.6458 19.8367C20.6458 15.1544 22.6862 14.4189 24.3731 14.4189ZM35.9736 19.8904C35.9736 17.545 35.8626 9.87089 45.7552 9.87089C49.7262 9.87089 51.3844 11.1471 51.3844 11.1471L50.0517 15.3248C50.0517 15.3248 48.3957 14.4032 46.2378 14.4032C43.474 14.4032 41.7105 16.0225 41.7105 18.8716L41.7136 20.9145C41.7136 23.6522 43.4151 25.4797 46.2435 25.4797C48.2093 25.4797 50.0212 24.5494 50.0212 24.5494L51.3505 28.6399C51.3505 28.6399 49.8344 29.9241 45.783 29.9241C36.3636 29.9241 35.9738 23.0389 35.9738 19.8904H35.9736ZM83.6127 9.86361C88.9714 9.86361 91.4618 13.9374 91.4618 19.7203C91.4618 27.0051 88.2815 29.9207 83.6095 29.9207C80.9366 29.9207 78.9606 28.7837 77.8932 26.6615V29.5397L72.4658 29.5375V0.586841L78.2283 0.0788965V12.9458C79.06 10.6948 81.7933 9.86361 83.6129 9.86361H83.6127ZM81.9972 14.4189C79.7466 14.4189 78.2283 16.0056 78.2283 18.7044L78.2229 21.4608C78.2196 23.2797 79.2744 25.4077 81.9972 25.4077C85.8267 25.4077 85.7244 21.2286 85.7244 19.8367C85.7244 15.1544 83.6842 14.4189 81.9972 14.4189ZM61.3828 9.87957C55.305 9.87957 52.0963 13.2287 52.0963 19.1806V20.2863C52.0963 28.0112 56.6023 30 61.9743 30C67.1959 30 69.5594 28.5239 69.5594 28.5239L68.4811 24.593C68.4811 24.593 65.7009 25.7887 62.6652 25.7887C59.5182 25.7887 58.1648 24.978 57.8179 21.9212H70.0201V18.7678C70.0201 12.3115 66.419 9.87942 61.3827 9.87942L61.3828 9.87957ZM61.5293 13.8157C63.6331 13.8157 64.9963 15.1196 64.9215 18.1436H57.8284C57.9515 14.9609 59.4215 13.8158 61.5293 13.8158V13.8157ZM102.952 9.85307C96.7104 9.85307 93.4246 13.4079 93.4246 19.7784C93.4246 28.519 99.0886 29.9259 102.962 29.9259C108.633 29.9259 112.406 26.8403 112.406 19.8578C112.406 12.5901 108.164 9.85307 102.952 9.85307ZM102.873 14.4348C105.618 14.4348 106.705 16.5108 106.705 18.8737V20.9054C106.705 23.768 105.184 25.4237 102.863 25.4237C100.693 25.4237 99.1672 23.875 99.1672 20.9054V18.8737C99.1672 15.7068 100.982 14.4348 102.873 14.4348ZM123.886 9.85307C117.645 9.85307 114.358 13.4079 114.358 19.7784C114.358 28.519 120.023 29.9259 123.896 29.9259C129.567 29.9259 133.34 26.8403 133.34 19.8578C133.34 12.5901 129.098 9.85307 123.886 9.85307ZM123.807 14.4348C126.552 14.4348 127.639 16.5108 127.639 18.8737V20.9054C127.639 23.768 126.117 25.4237 123.797 25.4237C121.627 25.4237 120.101 23.875 120.101 20.9054V18.8737C120.101 15.7068 121.916 14.4348 123.807 14.4348ZM135.517 29.5376V0.586841L141.296 0.0788965V19.4835L147.031 10.2372H153.134L147.153 19.8137L153.364 29.5376H147.243L141.296 20.0959V29.5376H135.517Z" fill="#2D88FF"/>
</svg>
