<svg width="126" height="30" viewBox="0 0 126 30" fill="none" xmlns="http://www.w3.org/2000/svg">
<path d="M49.4229 10.7104H53.3959V23.1899H49.4229V10.7104Z" fill="#E60023"/>
<path d="M54.2251 10.7104H58.0518V12.4166H58.1248C59.0511 11.076 60.2454 10.3449 61.976 10.3449C64.7059 10.3449 66.3145 12.2947 66.3145 15.0734V23.1899H62.3417V15.8778C62.3417 14.5615 61.6835 13.6596 60.3917 13.6596C59.0756 13.6596 58.1981 14.7565 58.1981 16.292V23.1899H54.2251V10.7104Z" fill="#E60023"/>
<path d="M53.7923 7.37181C53.7923 6.05553 52.7252 4.98862 51.4091 4.98862C50.093 4.98862 49.0259 6.05553 49.0259 7.37181C49.0259 8.68793 50.093 9.75484 51.4091 9.75484C52.7252 9.75484 53.7923 8.68793 53.7923 7.37181Z" fill="#E60023"/>
<path d="M94.2569 10.5303C94.1437 10.5201 94.0137 10.5155 93.8619 10.5155C92.35 10.5155 91.327 11.1736 90.449 12.6604H90.376V10.7105H86.574V23.1899H90.5471V17.584C90.5471 14.9864 91.9852 13.7827 94.2569 13.9928V10.5303Z" fill="#E60023"/>
<path d="M113.754 15.3169C112.17 15.0245 110.756 14.9026 110.756 14.0252C110.756 13.2452 111.511 12.8796 112.487 12.8796C113.583 12.8796 114.339 13.2208 114.485 14.3421H118.141C117.946 11.8804 116.045 10.3447 112.511 10.3447C109.562 10.3447 107.124 11.7096 107.124 14.3421C107.124 17.2668 109.44 17.8519 111.609 18.2175C113.266 18.5101 114.777 18.6319 114.777 19.753C114.777 20.5574 114.022 20.9962 112.828 20.9962C111.629 20.9962 110.837 20.4892 110.594 19.4607H106.809C107.087 22.0261 109.339 23.5798 112.852 23.5798C116.118 23.5798 118.531 22.1661 118.531 19.4363C118.531 16.2432 115.947 15.6826 113.754 15.3169Z" fill="#E60023"/>
<path d="M100.42 13.1726C101.712 13.1726 102.638 14.1232 102.784 15.6102H97.861C98.1285 14.1232 98.9092 13.1726 100.42 13.1726ZM100.639 20.7041C99.0065 20.7041 98.0799 19.6561 97.8367 17.9743H106.806C106.83 15.4395 106.099 13.2701 104.612 11.9053C103.54 10.9304 102.126 10.3453 100.347 10.3453C96.5445 10.3453 93.9365 13.197 93.9365 16.9263C93.9365 20.7041 96.4715 23.5561 100.591 23.5561C102.175 23.5561 103.442 23.1416 104.491 22.4104C105.588 21.6549 106.319 20.5823 106.586 19.4613H102.711C102.37 20.2411 101.687 20.7041 100.639 20.7041Z" fill="#E60023"/>
<path d="M125.529 20.2476C125.344 20.2548 125.098 20.2655 124.87 20.2655C124.017 20.2655 123.481 20.0216 123.481 19.0467V13.197H125.529V10.7109H123.481V6.76227H119.605V10.7109H118.386V13.197H119.605V19.8998C119.605 22.581 121.263 23.3365 123.578 23.3365C124.462 23.3365 125.129 23.2703 125.529 23.1925V20.2476Z" fill="#E60023"/>
<path d="M73.4103 20.2532C73.2518 20.2594 73.0688 20.2655 72.8979 20.2655C72.0449 20.2655 71.5086 20.0216 71.5086 19.0467V13.197H73.4103V10.7108H71.5086V6.76227H67.6331V10.7108H66.3408V13.197H67.6331V19.8998C67.6331 22.581 69.2905 23.3365 71.6061 23.3365C72.3896 23.3365 73.0031 23.2844 73.4103 23.2183V20.2532Z" fill="#E60023"/>
<path d="M82.0634 15.6101C81.9171 14.1233 80.9908 13.1725 79.6989 13.1725C78.1878 13.1725 77.4078 14.1233 77.1396 15.6101H82.0634ZM73.2156 16.9262C73.2156 13.197 75.8235 10.3454 79.6259 10.3454C81.4051 10.3454 82.8189 10.9303 83.8913 11.9052C85.378 13.2701 86.1093 15.4394 86.085 17.9743H77.1154C77.359 19.6561 78.2853 20.7042 79.9184 20.7042C80.9664 20.7042 81.6489 20.2411 81.9901 19.4612H85.8652C85.5977 20.5823 84.8665 21.6548 83.7697 22.4104C82.7214 23.1416 81.454 23.556 79.8696 23.556C75.7504 23.556 73.2156 20.7042 73.2156 16.9262Z" fill="#E60023"/>
<path d="M42.523 13.9523C44.083 13.9523 44.9604 13.026 44.9604 11.6366C44.9604 10.2474 44.0585 9.39432 42.523 9.39432H39.4761V13.9523H42.523ZM35.4539 5.76257H42.3531C44.4735 5.76257 46.0335 6.34749 47.106 7.37124C48.2272 8.41924 48.8609 9.90618 48.8609 11.661C48.8609 15.0002 46.5454 17.3646 42.9624 17.3646H39.4761V23.1899H35.4539V5.76257Z" fill="#E60023"/>
<path d="M30.0001 15C30.0001 23.2843 23.2842 30 15 30C6.71577 30 0 23.2843 0 15C0 6.71565 6.71577 0 15 0C23.2842 0 30.0001 6.71565 30.0001 15Z" fill="white"/>
<path d="M15 0C6.71577 0 0 6.71577 0 15C0 21.3548 3.95375 26.7872 9.53362 28.9728C9.40255 27.786 9.28398 25.9608 9.58561 24.6652C9.85823 23.4945 11.3446 17.2092 11.3446 17.2092C11.3446 17.2092 10.8959 16.3106 10.8959 14.9822C10.8959 12.8965 12.1048 11.3392 13.6101 11.3392C14.8899 11.3392 15.508 12.3001 15.508 13.4522C15.508 14.7392 14.6885 16.6634 14.2657 18.4466C13.9124 19.9395 15.0144 21.1571 16.4869 21.1571C19.153 21.1571 21.2023 18.346 21.2023 14.2882C21.2023 10.6967 18.6217 8.18565 14.9367 8.18565C10.6686 8.18565 8.16349 11.3869 8.16349 14.6952C8.16349 15.9844 8.66009 17.3668 9.27987 18.1184C9.40247 18.2669 9.42041 18.397 9.38385 18.5486C9.26997 19.0223 9.01698 20.0412 8.96725 20.2498C8.90184 20.5243 8.7499 20.5826 8.46562 20.4503C6.5922 19.5782 5.42089 16.8392 5.42089 14.6392C5.42089 9.90756 8.85883 5.56205 15.332 5.56205C20.5355 5.56205 24.5792 9.27 24.5792 14.2253C24.5792 19.3949 21.3197 23.5554 16.7956 23.5554C15.2755 23.5554 13.8467 22.7657 13.3576 21.833C13.3576 21.833 12.6054 24.6969 12.4231 25.3988C12.0844 26.7017 11.1702 28.3348 10.5588 29.3312C11.9622 29.7656 13.4537 30 15 30C23.2844 30 30.0001 23.2843 30.0001 15C30.0001 6.71577 23.2844 0 15 0Z" fill="#E60023"/>
</svg>
