<svg width="135" height="30" viewBox="0 0 135 30" fill="none" xmlns="http://www.w3.org/2000/svg">
<path d="M41.9648 4.69412C41.4706 2.85883 40.0235 1.41177 38.1883 0.917648C34.8353 -6.36835e-08 21.4235 0 21.4235 0C21.4235 0 8.01177 6.36835e-08 4.65883 0.882358C2.85882 1.37648 1.37647 2.85883 0.882351 4.69412C-6.36835e-08 8.04707 0 15 0 15C0 15 -6.36835e-08 21.9883 0.882351 25.306C1.37647 27.1412 2.82353 28.5883 4.65883 29.0823C8.04706 30 21.4235 30 21.4235 30C21.4235 30 34.8353 30 38.1883 29.1177C40.0235 28.6235 41.4706 27.1765 41.9648 25.3412C42.8471 21.9883 42.8471 15.0353 42.8471 15.0353C42.8471 15.0353 42.8824 8.04707 41.9648 4.69412Z" fill="#FF0000"/>
<path d="M17.1523 21.4237L28.3054 15.0002L17.1523 8.57666V21.4237Z" fill="white"/>
<path d="M62.2243 27.3181C61.3773 26.7533 60.7772 25.871 60.4243 24.6357C60.0713 23.4358 59.8949 21.8122 59.8949 19.8358V17.1181C59.8949 15.1064 60.1067 13.4828 60.495 12.2475C60.9185 11.0122 61.5538 10.1298 62.4008 9.56514C63.2831 9.00043 64.4126 8.71807 65.8243 8.71807C67.2008 8.71807 68.3302 9.00043 69.1773 9.56514C70.0243 10.1298 70.6243 11.0475 71.0126 12.2475C71.4008 13.4475 71.6125 15.071 71.6125 17.1181V19.8358C71.6125 21.8475 71.4361 23.4358 71.0479 24.6711C70.6596 25.871 70.0597 26.7887 69.2126 27.3534C68.3655 27.918 67.2008 28.2004 65.7538 28.2004C64.2713 28.1652 63.0714 27.8828 62.2243 27.3181ZM66.989 24.3534C67.2361 23.7534 67.342 22.7298 67.342 21.3534V15.4945C67.342 14.1533 67.2361 13.1651 66.989 12.5298C66.742 11.8946 66.3537 11.6122 65.7538 11.6122C65.189 11.6122 64.7655 11.9298 64.5537 12.5298C64.3067 13.1651 64.2008 14.1533 64.2008 15.4945V21.3534C64.2008 22.7298 64.3067 23.7534 64.5537 24.3534C64.7655 24.9534 65.189 25.271 65.789 25.271C66.3537 25.271 66.742 24.9887 66.989 24.3534ZM127.377 19.871V20.824C127.377 22.0239 127.412 22.9416 127.483 23.5416C127.553 24.1417 127.695 24.6005 127.942 24.8475C128.154 25.1299 128.507 25.271 129.001 25.271C129.636 25.271 130.06 25.024 130.307 24.5298C130.554 24.0358 130.659 23.224 130.695 22.0593L134.331 22.2711C134.366 22.4475 134.366 22.6592 134.366 22.9416C134.366 24.6711 133.906 25.9769 132.953 26.824C132.001 27.671 130.659 28.0945 128.931 28.0945C126.848 28.0945 125.401 27.424 124.553 26.1181C123.707 24.8122 123.283 22.8005 123.283 20.0475V16.7651C123.283 13.9416 123.707 11.8946 124.589 10.5887C125.471 9.28278 126.954 8.64748 129.036 8.64748C130.483 8.64748 131.612 8.92984 132.389 9.45926C133.166 9.98869 133.695 10.8357 134.012 11.9298C134.331 13.0593 134.472 14.6122 134.472 16.5887V19.8004H127.377V19.871ZM127.907 11.9652C127.695 12.2475 127.553 12.671 127.483 13.271C127.412 13.871 127.377 14.7887 127.377 16.0239V17.3651H130.483V16.0239C130.483 14.824 130.448 13.9063 130.377 13.271C130.307 12.6357 130.131 12.2122 129.919 11.9652C129.706 11.718 129.354 11.5769 128.931 11.5769C128.436 11.5417 128.119 11.6828 127.907 11.9652ZM51.9184 19.5181L47.1184 2.11807H51.3184L53.0125 9.98869C53.436 11.9298 53.7537 13.5887 53.9655 14.9651H54.0713C54.2126 13.9769 54.5302 12.3533 55.0243 10.0239L56.789 2.11807H60.989L56.1185 19.5181V27.8475H51.9537V19.5181H51.9184ZM85.2714 9.07102V27.8828H81.9538L81.6008 25.5886H81.4949C80.6126 27.3181 79.2361 28.2004 77.4361 28.2004C76.2008 28.2004 75.2831 27.7769 74.6832 26.9651C74.0832 26.1534 73.8008 24.8828 73.8008 23.1181V9.07102H78.0362V22.871C78.0362 23.7181 78.1419 24.3181 78.3184 24.6711C78.4949 25.024 78.8126 25.2005 79.2361 25.2005C79.589 25.2005 79.942 25.0946 80.2949 24.8475C80.6478 24.6357 80.895 24.3534 81.0361 24.0004V9.07102H85.2714ZM106.978 9.07102V27.8828H103.66L103.307 25.5886H103.201C102.319 27.3181 100.942 28.2004 99.142 28.2004C97.9067 28.2004 96.9891 27.7769 96.389 26.9651C95.7891 26.1534 95.5067 24.8828 95.5067 23.1181V9.07102H99.742V22.871C99.742 23.7181 99.8479 24.3181 100.024 24.6711C100.201 25.024 100.519 25.2005 100.942 25.2005C101.295 25.2005 101.648 25.0946 102.001 24.8475C102.354 24.6357 102.601 24.3534 102.742 24.0004V9.07102H106.978Z" fill="#282828"/>
<path d="M96.7779 5.54193H92.5779V27.8479H88.4485V5.54193H84.2485V2.1184H96.7779V5.54193ZM120.99 12.0714C120.742 10.8713 120.319 10.0243 119.754 9.49488C119.19 8.96547 118.378 8.68311 117.389 8.68311C116.613 8.68311 115.872 8.89488 115.201 9.3537C114.53 9.77723 114.001 10.3773 113.649 11.0831H113.614V1.16547H109.519V27.8479H113.013L113.436 26.0831H113.543C113.86 26.7184 114.354 27.2126 115.025 27.6007C115.696 27.9537 116.401 28.1655 117.213 28.1655C118.66 28.1655 119.683 27.4948 120.354 26.189C121.025 24.8832 121.378 22.8008 121.378 20.0125V17.0478C121.343 14.8949 121.237 13.2361 120.99 12.0714ZM117.107 19.7302C117.107 21.1067 117.037 22.1655 116.931 22.9419C116.825 23.7185 116.613 24.2831 116.366 24.6008C116.084 24.9184 115.731 25.0949 115.307 25.0949C114.955 25.0949 114.637 25.0243 114.354 24.8478C114.072 24.6714 113.825 24.4243 113.649 24.1066V13.4478C113.79 12.9537 114.037 12.5302 114.389 12.1773C114.743 11.8596 115.131 11.6831 115.519 11.6831C115.943 11.6831 116.295 11.8596 116.507 12.1773C116.755 12.5302 116.896 13.0948 117.002 13.8714C117.107 14.6832 117.143 15.8125 117.143 17.2596V19.7302H117.107Z" fill="#282828"/>
</svg>
