<svg width="1058" height="982" viewBox="0 0 1058 982" fill="none" xmlns="http://www.w3.org/2000/svg">
<path d="M773.627 857.323H735.326V864.053H773.627V857.323Z" fill="#4E4B66"/>
<path d="M794.393 955.858H790.265L756.523 798.382L754.603 789.409L748.536 761.14L746.292 750.587L737.803 711.029L734.841 697.192H749.578L751.964 711.029L753.543 720.129L754.603 726.178L760.651 761.14L762.589 772.376L794.393 955.858Z" fill="#4E4B66"/>
<path d="M749.578 697.192L751.964 711.029H737.803L734.841 697.192H749.578Z" fill="#14142B"/>
<path d="M762.589 772.375L756.523 798.381L754.603 789.408L748.536 761.14L746.292 750.586L753.543 720.128L754.603 726.177L760.651 761.14L762.589 772.375Z" fill="#14142B"/>
<path d="M774.345 697.192L771.384 711.029L760.651 761.14L754.603 789.409L718.922 955.858H714.812L748.536 761.14L754.603 726.178L757.223 711.029L759.628 697.192H774.345Z" fill="#4E4B66"/>
<path d="M774.345 697.192L771.384 711.029H757.223L759.628 697.192H774.345Z" fill="#14142B"/>
<path d="M1029.56 857.323H991.256V864.053H1029.56V857.323Z" fill="#4E4B66"/>
<path d="M1050.32 955.858H1046.19L1012.45 798.382L1010.53 789.409L1004.46 761.14L1002.22 750.587L993.733 711.029L990.771 697.192H1005.51L1007.89 711.029L1009.47 720.129L1010.53 726.178L1016.58 761.14L1018.52 772.376L1050.32 955.858Z" fill="#4E4B66"/>
<path d="M1005.51 697.192L1007.89 711.029H993.733L990.771 697.192H1005.51Z" fill="#14142B"/>
<path d="M1018.52 772.375L1012.45 798.381L1010.53 789.408L1004.46 761.14L1002.22 750.586L1009.47 720.128L1010.53 726.177L1016.58 761.14L1018.52 772.375Z" fill="#14142B"/>
<path d="M1030.27 697.192L1027.31 711.029L1016.58 761.14L1010.53 789.409L974.868 955.858H970.741L1004.46 761.14L1010.53 726.178L1013.15 711.029L1015.56 697.192H1030.27Z" fill="#4E4B66"/>
<path d="M1030.27 697.192L1027.31 711.029H1013.15L1015.56 697.192H1030.27Z" fill="#14142B"/>
<path d="M1053.23 678.238H698.575C696.461 678.238 694.745 679.953 694.745 682.069V693.361C694.745 695.476 696.461 697.192 698.575 697.192H1053.23C1055.35 697.192 1057.06 695.477 1057.06 693.361V682.069C1057.06 679.953 1055.35 678.238 1053.23 678.238Z" fill="#4E4B66"/>
<path d="M783.516 678.238H692.004C689.966 678.238 688.254 676.709 688.023 674.685L681.577 618.102C681.306 615.726 683.165 613.643 685.558 613.643H772.582C774.62 613.643 776.332 615.172 776.563 617.196L783.516 678.238Z" fill="#D9DBE9"/>
<path d="M778.348 673.893H696.185C694.149 673.893 692.435 672.365 692.206 670.341L686.238 617.968H771.975L778.348 673.893Z" fill="white"/>
<path d="M811.426 673.894H689.092V678.219H811.426V673.894Z" fill="#D9DBE9"/>
<path d="M837.988 673.894H715.654V678.219H837.988V673.894Z" fill="#EFF0F7"/>
<path d="M772.281 620.696L771.975 617.968H686.238L686.561 620.696H772.281Z" fill="white"/>
<path d="M902.214 626.489L904.027 629.298L905.976 632.379C907.244 634.444 908.472 636.551 909.701 638.676C912.119 642.927 914.459 647.236 916.623 651.604C920.973 660.205 924.618 669.145 927.523 678.337C928.225 680.598 928.848 682.86 929.472 685.121L930.272 688.534L930.603 690.229L930.778 691.087C930.778 691.361 930.896 691.731 930.896 691.653C930.896 691.575 931.052 691.653 931.247 691.146C931.456 690.695 931.778 690.306 932.183 690.016C932.514 689.821 932.572 690.016 932.397 690.191C931.994 690.558 931.541 690.867 931.052 691.108C929.387 691.926 927.624 692.529 925.807 692.902C923.599 693.416 921.368 693.813 919.119 694.09C914.478 694.695 909.37 694.988 904.573 695.241H904.085C902.506 695.324 901.003 695.951 899.834 697.015C898.664 698.08 897.9 699.516 897.67 701.082C897.44 702.646 897.759 704.243 898.574 705.599C899.388 706.955 900.646 707.986 902.136 708.52C907.52 710.451 913.085 711.829 918.748 712.634C925.079 713.667 931.548 713.501 937.817 712.146C939.843 711.649 941.806 710.923 943.667 709.982C946.02 708.788 948.145 707.191 949.946 705.263C952.05 702.976 953.609 700.244 954.508 697.269C955.272 694.584 955.542 691.783 955.307 689.001C955.307 688.261 955.307 687.987 955.191 687.617L955.054 686.545L954.8 684.361C954.586 682.938 954.392 681.495 954.157 680.072C953.671 677.224 953.124 674.398 952.441 671.628C949.773 660.671 946.023 650.005 941.249 639.788C938.89 634.757 936.374 629.805 933.626 624.989C932.261 622.571 930.818 620.192 929.336 617.833C928.595 616.643 927.834 615.473 927.035 614.283C926.236 613.095 925.495 612.022 924.48 610.618C922.381 607.794 919.271 605.89 915.801 605.304C912.331 604.717 908.769 605.494 905.858 607.472C902.947 609.45 900.911 612.474 900.179 615.916C899.444 619.358 900.069 622.951 901.921 625.944L902.214 626.489Z" fill="#CAB7FF"/>
<path d="M850.075 547.794C849.88 549.12 849.022 550.075 848.126 549.958C847.228 549.842 846.721 548.652 846.917 547.346C847.112 546.039 847.97 545.064 848.866 545.181C849.764 545.298 850.271 546.488 850.075 547.794Z" fill="#14142B"/>
<path d="M849.138 550.095C846.972 553.881 840.915 559.315 841.183 560.41C841.451 561.504 842.947 561.774 844.002 562.138C845.055 562.502 846.178 562.631 847.286 562.515L849.138 550.095Z" fill="#FF97B8"/>
<path d="M855.827 541.204C855.661 541.191 855.508 541.114 855.398 540.99C854.718 540.283 853.876 539.749 852.947 539.433C852.017 539.118 851.026 539.03 850.055 539.176C849.852 539.217 849.64 539.177 849.465 539.064C849.29 538.951 849.166 538.775 849.119 538.572C849.079 538.37 849.12 538.161 849.233 537.989C849.346 537.818 849.522 537.698 849.724 537.656C850.947 537.452 852.201 537.548 853.379 537.936C854.558 538.323 855.625 538.989 856.49 539.878C856.634 540.027 856.714 540.227 856.714 540.434C856.714 540.641 856.634 540.841 856.49 540.99C856.402 541.072 856.297 541.134 856.182 541.171C856.067 541.208 855.946 541.219 855.827 541.204Z" fill="#14142B"/>
<path d="M888.702 562.321C888.137 574.604 889.072 596.793 898.607 603.52C898.607 603.52 897.144 616.097 874.975 619.412C850.622 623.038 861.522 609.038 861.522 609.038C874.352 603.89 872.537 594.063 868.833 585.153L888.702 562.321Z" fill="#FFD5BD"/>
<path d="M902.429 608.435C903.384 602.877 904.378 596.54 900.185 595.565C895.584 594.492 871.757 597.672 864.231 603.365C856.704 609.058 860.565 618.964 860.565 618.964L902.429 608.435Z" fill="white"/>
<path d="M838.181 629.142C837.284 648.797 838.181 687.773 851.518 746.775H939.689C940.235 734.511 927.58 681.632 928.673 623.526C928.727 620.614 928.201 617.719 927.126 615.013C926.051 612.305 924.447 609.839 922.409 607.757C920.372 605.676 917.939 604.021 915.256 602.889C912.572 601.756 909.689 601.169 906.776 601.161C905.04 601.161 903.208 601.161 901.316 601.376C888.842 602.244 876.432 603.859 864.153 606.212C860.487 607.051 856.919 608.025 853.682 609.02C849.34 610.369 845.521 613.026 842.747 616.628C839.972 620.229 838.378 624.6 838.181 629.142Z" fill="#0048F0"/>
<path opacity="0.2" d="M851.499 664.512C852.902 674.495 856.139 691.81 844.46 710.957C843.134 703.021 842.061 695.593 841.184 688.651L851.499 664.512Z" fill="#14142B"/>
<path d="M782.786 688.67L767.947 683.562L773.991 667.963C777.363 668.453 780.54 669.849 783.18 672.001C785.822 674.155 787.827 676.984 788.986 680.189L782.786 688.67Z" fill="#FFD5BD"/>
<path d="M760.443 679.346C759.661 677.588 757.284 667.653 758.863 666.75C760.443 665.847 774.345 668.037 774.345 668.037L768.3 683.694C768.3 683.694 761.224 681.103 760.443 679.346Z" fill="#FFD5BD"/>
<path d="M838.278 627.328C837.46 630.194 836.446 633.529 835.471 636.648C834.495 639.768 833.521 642.965 832.39 646.105C830.285 652.384 827.963 658.564 825.526 664.609C823.089 670.654 820.359 676.523 817.415 682.002C814.725 687.185 811.455 692.046 807.666 696.489L821.958 694.285C819.209 693.097 816.382 691.868 813.535 690.386C810.688 688.904 807.783 687.579 804.917 686.018L796.142 681.397C793.218 679.857 790.293 678.18 787.309 676.738L786.998 676.581C785.605 675.882 784.016 675.677 782.492 675.995C780.966 676.314 779.594 677.139 778.598 678.336C777.601 679.534 777.039 681.034 777.003 682.592C776.968 684.149 777.459 685.672 778.399 686.915C780.581 689.796 782.911 692.563 785.379 695.202C787.816 697.835 790.371 700.331 793.023 702.787C795.674 705.244 798.482 707.563 801.407 709.786C804.332 712.009 807.432 714.154 810.727 716.143C812.838 717.403 815.302 717.938 817.746 717.666C820.188 717.396 822.476 716.333 824.26 714.642L825.019 713.92C830.798 708.318 835.813 701.978 839.935 695.065C843.85 688.708 847.335 682.096 850.368 675.275C853.428 668.587 856.061 661.801 858.46 654.977C859.648 651.564 860.799 648.133 861.833 644.681C862.866 641.23 863.783 637.838 864.777 634.016C865.71 630.518 865.215 626.791 863.402 623.658C861.588 620.524 858.604 618.24 855.106 617.306C851.607 616.372 847.881 616.867 844.748 618.68C841.613 620.494 839.329 623.478 838.396 626.976L838.278 627.328Z" fill="#CAB7FF"/>
<path d="M894.356 551.576C890.944 567.565 889.774 577.1 880.375 584.177C866.239 594.824 847.403 584.45 845.961 567.74C844.674 552.707 850.446 529.075 867.215 525C870.91 524.086 874.776 524.132 878.449 525.133C882.121 526.134 885.476 528.058 888.196 530.72C890.915 533.383 892.908 536.697 893.987 540.348C895.064 543.998 895.192 547.863 894.356 551.576Z" fill="#FFD5BD"/>
<path d="M859.903 553.254C852.259 552.669 852.707 549.14 854.423 546.546C856.139 543.953 860.807 536.924 858.225 534.633C855.643 532.341 847.599 537.441 849.782 527.262C851.966 517.084 866.317 504.196 878.855 512.093C903.832 507.978 912.002 518.059 908.102 527.379C927.933 536.154 913.62 553.917 905.724 553.917C912.762 560.195 887.704 580.884 885.212 579.401C882.718 577.919 854.326 568.405 859.903 553.254Z" fill="#14142B"/>
<path d="M875.346 517.201C875.605 517.197 875.861 517.142 876.099 517.038C876.337 516.935 876.551 516.784 876.73 516.597C879.636 513.674 883.258 511.566 887.234 510.481C891.21 509.396 895.4 509.374 899.387 510.416C899.889 510.533 900.416 510.447 900.854 510.177C901.293 509.906 901.606 509.474 901.727 508.973C901.844 508.471 901.758 507.944 901.487 507.505C901.218 507.067 900.785 506.753 900.285 506.633C895.632 505.446 890.752 505.49 886.123 506.762C881.493 508.034 877.275 510.489 873.883 513.886C873.52 514.252 873.316 514.746 873.316 515.261C873.316 515.776 873.52 516.27 873.883 516.636C874.074 516.826 874.303 516.975 874.556 517.072C874.807 517.169 875.075 517.213 875.346 517.201Z" fill="#14142B"/>
<path d="M901.181 571.679C901.438 571.681 901.692 571.632 901.929 571.535C902.167 571.438 902.382 571.295 902.565 571.114C908.064 565.576 910.365 561.248 909.662 557.465C909.334 556.035 908.658 554.71 907.691 553.608C906.725 552.505 905.499 551.66 904.125 551.148C903.657 550.925 903.119 550.898 902.631 551.072C902.144 551.245 901.744 551.606 901.522 552.074C901.3 552.542 901.272 553.079 901.445 553.567C901.619 554.055 901.98 554.454 902.447 554.677C904.495 555.652 905.587 556.782 905.821 558.128C906.056 559.474 905.275 562.847 899.796 568.346C899.613 568.527 899.467 568.741 899.369 568.98C899.27 569.218 899.219 569.472 899.219 569.73C899.219 569.988 899.27 570.242 899.369 570.479C899.467 570.717 899.613 570.932 899.796 571.114C899.978 571.295 900.194 571.438 900.431 571.535C900.669 571.632 900.924 571.681 901.181 571.679Z" fill="#14142B"/>
<path d="M869.299 552.006C867.991 555.856 865.456 559.17 862.086 561.443C857.619 564.387 854.597 561.053 855.182 556.237C855.709 551.889 858.673 545.123 863.47 544.089C868.266 543.056 870.801 547.346 869.299 552.006Z" fill="#FFD5BD"/>
<path d="M716.842 964.281C714.736 964.281 712.688 963.988 712.007 963.052C711.832 962.801 711.737 962.501 711.737 962.195C711.737 961.888 711.832 961.588 712.007 961.337C712.138 961.109 712.316 960.91 712.526 960.753C712.738 960.595 712.978 960.482 713.235 960.42C715.984 959.679 721.737 962.955 721.99 963.111C722.057 963.148 722.112 963.206 722.144 963.276C722.176 963.346 722.182 963.425 722.166 963.501C722.156 963.58 722.122 963.653 722.07 963.713C722.018 963.771 721.949 963.813 721.872 963.833C720.211 964.119 718.528 964.269 716.842 964.281ZM714.23 961.084C713.979 961.082 713.73 961.116 713.489 961.181C713.327 961.211 713.175 961.277 713.041 961.371C712.906 961.464 712.793 961.585 712.709 961.727C712.436 962.214 712.533 962.449 712.709 962.585C713.489 963.656 717.661 963.677 720.722 963.248C718.694 962.104 716.461 961.368 714.152 961.084H714.23Z" fill="#3F80FD"/>
<path d="M721.834 963.833H721.678C719.727 962.955 715.731 959.387 716.043 957.515C716.043 957.086 716.413 956.54 717.485 956.424C717.872 956.383 718.263 956.421 718.634 956.535C719.007 956.65 719.352 956.836 719.649 957.086C721.756 958.821 722.204 963.267 722.223 963.443C722.226 963.511 722.212 963.58 722.181 963.641C722.151 963.702 722.105 963.755 722.048 963.793C721.985 963.834 721.908 963.848 721.834 963.833ZM717.797 957.145H717.563C716.861 957.145 716.823 957.496 716.804 957.574C716.627 958.704 719.298 961.473 721.346 962.721C721.16 960.84 720.396 959.064 719.163 957.633C718.78 957.313 718.296 957.14 717.797 957.145Z" fill="#3F80FD"/>
<path d="M740.571 963.443H724.075L727.215 925.264H743.711L740.571 963.443Z" fill="#FFD5BD"/>
<path d="M724.056 961.532H742.053C742.368 961.521 742.674 961.633 742.906 961.844C743.14 962.056 743.282 962.349 743.302 962.662L744.373 977.248C744.387 977.625 744.325 978.003 744.189 978.357C744.054 978.712 743.851 979.035 743.589 979.309C743.328 979.584 743.014 979.804 742.666 979.954C742.319 980.106 741.945 980.187 741.566 980.192C735.093 980.074 725.772 979.704 717.602 979.704C708.068 979.704 707.073 980.211 695.881 980.211C689.116 980.211 688.258 973.367 691.183 972.762C704.48 969.936 707.737 969.623 719.903 962.76C721.161 962.003 722.591 961.581 724.056 961.532Z" fill="#14142B"/>
<path opacity="0.2" d="M727.234 925.283L725.596 944.958H742.092L743.711 925.283H727.234Z" fill="#14142B"/>
<path d="M819.444 964.281C818.053 964.441 816.655 964.057 815.543 963.208C815.338 962.925 815.227 962.584 815.227 962.233C815.227 961.883 815.338 961.542 815.543 961.259C815.672 961.03 815.848 960.831 816.06 960.676C816.272 960.522 816.515 960.415 816.771 960.361C819.17 959.795 823.732 962.916 823.928 963.052C823.986 963.097 824.032 963.157 824.059 963.226C824.087 963.294 824.096 963.369 824.083 963.442C824.072 963.516 824.037 963.583 823.985 963.636C823.933 963.688 823.865 963.723 823.791 963.734C822.366 964.076 820.908 964.259 819.444 964.281ZM817.377 961.141C817.214 961.121 817.051 961.121 816.889 961.141C816.738 961.172 816.595 961.234 816.471 961.326C816.346 961.417 816.243 961.533 816.168 961.667C815.816 962.311 816.031 962.584 816.168 962.662C816.87 963.598 820.243 963.598 822.699 963.189C821.138 962.127 819.359 961.427 817.493 961.141H817.377Z" fill="#3F80FD"/>
<path d="M823.694 963.833H823.517C821.802 962.897 818.508 959.289 818.857 957.457C818.916 957.167 819.072 956.907 819.299 956.719C819.526 956.531 819.811 956.427 820.106 956.423C820.402 956.387 820.704 956.413 820.988 956.501C821.274 956.588 821.539 956.734 821.763 956.931C823.713 958.49 824.083 963.248 824.083 963.442C824.092 963.515 824.079 963.588 824.049 963.653C824.018 963.718 823.968 963.774 823.908 963.814C823.839 963.839 823.765 963.847 823.694 963.833ZM820.379 957.145H820.203C819.696 957.145 819.637 957.438 819.618 957.535C819.423 958.627 821.568 961.434 823.225 962.643C823.106 960.765 822.427 958.965 821.276 957.476C821.025 957.264 820.707 957.147 820.379 957.145Z" fill="#3F80FD"/>
<path d="M838.785 963.443H822.309L814.023 925.264H830.498L838.785 963.443Z" fill="#FFD5BD"/>
<path d="M821.139 961.532H839.643C839.971 961.529 840.29 961.64 840.547 961.846C840.802 962.053 840.98 962.34 841.046 962.662L844.303 977.247C844.382 977.604 844.38 977.974 844.297 978.33C844.212 978.685 844.049 979.017 843.818 979.3C843.587 979.584 843.295 979.811 842.964 979.966C842.632 980.12 842.271 980.197 841.904 980.192C835.431 980.074 832.292 979.704 824.142 979.704C819.131 979.704 812.715 980.211 805.794 980.211C798.871 980.211 797.994 973.367 800.802 972.762C813.495 969.974 814.45 966.152 818.448 962.487C819.197 961.85 820.155 961.509 821.139 961.532Z" fill="#14142B"/>
<path d="M877.938 746.775C877.938 746.775 786.491 774.521 784.228 811.257C780.075 878.916 813.262 936.572 813.262 936.572H837.986C837.986 936.572 828.588 907.989 825.214 846.705C820.983 769.686 966.617 848.498 939.689 746.775H877.938Z" fill="#171347"/>
<g opacity="0.2">
<path opacity="0.2" d="M830.519 925.283H814.023L818.292 944.958H834.789L830.519 925.283Z" fill="#14142B"/>
</g>
<path d="M851.519 746.775C851.519 746.775 733.26 754.575 728.581 817.339C723.218 889.485 721.658 936.572 721.658 936.572H746.149C746.149 936.572 758.745 892.331 769.546 828.727C772.803 809.678 813.203 806.402 851.441 804.139C884.392 802.19 909.701 800.24 912.47 763.739L912.041 746.775H851.519Z" fill="#171347"/>
<path d="M715.674 930.021C715.537 930.021 717.253 941.722 717.253 941.722H751.199L752.116 931.367L715.674 930.021Z" fill="#3F80FD"/>
<path d="M805.794 930.021C805.657 930.021 808.913 941.722 808.913 941.722H842.84L842.217 931.367L805.794 930.021Z" fill="#3F80FD"/>
<path d="M856.841 798.953L873.395 686.506C873.839 683.462 875.365 680.679 877.693 678.668C880.019 676.656 882.992 675.548 886.069 675.548H983.737C985.577 675.548 987.396 675.944 989.07 676.71C990.744 677.476 992.232 678.594 993.435 679.987C994.638 681.381 995.526 683.017 996.039 684.784C996.553 686.552 996.679 688.41 996.411 690.23L980.422 798.953C980.422 800.204 980.175 801.443 979.696 802.6C979.216 803.755 978.514 804.804 977.628 805.688C976.743 806.573 975.691 807.272 974.534 807.75C973.377 808.227 972.139 808.471 970.888 808.469H792.846C792.846 807.218 793.094 805.978 793.573 804.822C794.053 803.667 794.755 802.617 795.641 801.734C796.526 800.849 797.578 800.149 798.735 799.672C799.892 799.194 801.13 798.951 802.381 798.953H856.841Z" fill="#3F80FD"/>
<path opacity="0.5" d="M856.841 798.953L873.395 686.506C873.839 683.462 875.365 680.679 877.693 678.668C880.019 676.656 882.992 675.548 886.069 675.548H983.737C985.577 675.548 987.396 675.944 989.07 676.71C990.744 677.476 992.232 678.594 993.435 679.987C994.638 681.381 995.526 683.017 996.039 684.784C996.553 686.552 996.679 688.41 996.411 690.23L980.422 798.953C980.422 800.204 980.175 801.443 979.696 802.6C979.216 803.755 978.514 804.804 977.628 805.688C976.743 806.573 975.691 807.272 974.534 807.75C973.377 808.227 972.139 808.471 970.888 808.469H792.846C792.846 807.218 793.094 805.978 793.573 804.822C794.053 803.667 794.755 802.617 795.641 801.734C796.526 800.849 797.578 800.149 798.735 799.672C799.892 799.194 801.13 798.951 802.381 798.953H856.841Z" fill="white"/>
<path opacity="0.3" d="M886.069 675.548H983.737C985.577 675.548 987.396 675.944 989.07 676.71C990.744 677.476 992.232 678.594 993.435 679.987C994.638 681.381 995.526 683.017 996.039 684.784C996.553 686.552 996.679 688.41 996.411 690.23L980.422 798.953C980.422 800.204 980.175 801.443 979.696 802.6C979.216 803.755 978.514 804.804 977.628 805.688C976.743 806.573 975.691 807.272 974.534 807.75C973.377 808.227 972.139 808.471 970.888 808.469H867.331L886.069 675.548Z" fill="#3F80FD"/>
<path d="M979.174 981.615H984.692L970.888 808.469H965.349L979.174 981.615Z" fill="#3F80FD"/>
<path opacity="0.6" d="M979.174 981.615H984.692L970.888 808.469H965.349L979.174 981.615Z" fill="white"/>
<path d="M885.289 981.615H890.808L876.983 808.469H871.465L885.289 981.615Z" fill="#3F80FD"/>
<path opacity="0.6" d="M885.289 981.615H890.808L876.983 808.469H871.465L885.289 981.615Z" fill="white"/>
<path d="M876.788 981.615H882.325L896.13 808.469H890.612L876.788 981.615Z" fill="#3F80FD"/>
<path opacity="0.7" d="M876.788 981.615H882.325L896.13 808.469H890.612L876.788 981.615Z" fill="white"/>
<path d="M782.903 981.615H788.421L802.245 808.469H796.728L782.903 981.615Z" fill="#3F80FD"/>
<path opacity="0.7" d="M782.903 981.615H788.421L802.245 808.469H796.728L782.903 981.615Z" fill="white"/>
<g filter="url(#filter0_dd)">
<path d="M638.708 346.029H354.594C339.665 346.029 327.562 358.131 327.562 373.061V610.51C327.562 625.44 339.665 637.542 354.594 637.542H638.708C653.638 637.542 665.74 625.44 665.74 610.51V373.061C665.74 358.131 653.638 346.029 638.708 346.029Z" fill="white" fill-opacity="0.01"/>
</g>
<path d="M638.708 346.029H354.594C339.665 346.029 327.562 358.131 327.562 373.061V610.51C327.562 625.44 339.665 637.542 354.594 637.542H638.708C653.638 637.542 665.74 625.44 665.74 610.51V373.061C665.74 358.131 653.638 346.029 638.708 346.029Z" fill="white"/>
<g filter="url(#filter1_d)">
<path d="M352.417 367.369C352.417 368.542 352.07 369.688 351.419 370.662C350.767 371.637 349.843 372.397 348.759 372.845C347.676 373.294 346.484 373.412 345.334 373.183C344.185 372.953 343.128 372.39 342.299 371.56C341.471 370.731 340.906 369.676 340.677 368.526C340.449 367.375 340.565 366.185 341.014 365.101C341.463 364.018 342.222 363.092 343.198 362.441C344.173 361.789 345.319 361.442 346.491 361.442C348.063 361.442 349.571 362.066 350.682 363.177C351.793 364.29 352.417 365.797 352.417 367.369Z" fill="#FF3951" fill-opacity="0.01"/>
</g>
<path d="M352.417 367.369C352.417 368.542 352.07 369.688 351.419 370.662C350.767 371.637 349.843 372.397 348.759 372.845C347.676 373.294 346.484 373.412 345.334 373.183C344.185 372.953 343.128 372.39 342.299 371.56C341.471 370.731 340.906 369.676 340.677 368.526C340.449 367.375 340.565 366.185 341.014 365.101C341.463 364.018 342.222 363.092 343.198 362.441C344.173 361.789 345.319 361.442 346.491 361.442C348.063 361.442 349.571 362.066 350.682 363.177C351.793 364.29 352.417 365.797 352.417 367.369Z" fill="#FF3951"/>
<g filter="url(#filter2_d)">
<path d="M369.678 367.369C369.678 368.542 369.331 369.688 368.68 370.662C368.028 371.637 367.104 372.397 366.02 372.845C364.937 373.294 363.745 373.412 362.595 373.183C361.446 372.953 360.389 372.39 359.56 371.56C358.732 370.731 358.167 369.676 357.938 368.526C357.71 367.375 357.826 366.185 358.275 365.101C358.724 364.018 359.483 363.092 360.459 362.441C361.434 361.789 362.58 361.442 363.752 361.442C365.324 361.442 366.832 362.066 367.943 363.177C369.054 364.29 369.678 365.797 369.678 367.369Z" fill="#FFC226" fill-opacity="0.01"/>
</g>
<path d="M369.678 367.369C369.678 368.542 369.331 369.688 368.68 370.662C368.028 371.637 367.104 372.397 366.02 372.845C364.937 373.294 363.745 373.412 362.595 373.183C361.446 372.953 360.389 372.39 359.56 371.56C358.732 370.731 358.167 369.676 357.938 368.526C357.71 367.375 357.826 366.185 358.275 365.101C358.724 364.018 359.483 363.092 360.459 362.441C361.434 361.789 362.58 361.442 363.752 361.442C365.324 361.442 366.832 362.066 367.943 363.177C369.054 364.29 369.678 365.797 369.678 367.369Z" fill="#FFC226"/>
<g filter="url(#filter3_d)">
<path d="M386.941 367.369C386.941 368.542 386.592 369.688 385.942 370.662C385.291 371.637 384.365 372.397 383.281 372.845C382.198 373.294 381.006 373.412 379.857 373.183C378.707 372.953 377.652 372.39 376.822 371.56C375.993 370.731 375.428 369.676 375.2 368.526C374.971 367.375 375.089 366.185 375.538 365.101C375.985 364.018 376.746 363.092 377.721 362.441C378.695 361.789 379.841 361.442 381.013 361.442C382.585 361.442 384.093 362.066 385.204 363.177C386.317 364.29 386.941 365.797 386.941 367.369Z" fill="#9AE886" fill-opacity="0.01"/>
</g>
<path d="M386.941 367.369C386.941 368.542 386.592 369.688 385.942 370.662C385.291 371.637 384.365 372.397 383.281 372.845C382.198 373.294 381.006 373.412 379.857 373.183C378.707 372.953 377.652 372.39 376.822 371.56C375.993 370.731 375.428 369.676 375.2 368.526C374.971 367.375 375.089 366.185 375.538 365.101C375.985 364.018 376.746 363.092 377.721 362.441C378.695 361.789 379.841 361.442 381.013 361.442C382.585 361.442 384.093 362.066 385.204 363.177C386.317 364.29 386.941 365.797 386.941 367.369Z" fill="#9AE886"/>
<path d="M665.74 379.383H327.562V381.357H665.74V379.383Z" fill="#F5F7FC"/>
<path d="M638.107 404.714H519.385C516.399 404.714 513.979 407.135 513.979 410.12C513.979 413.106 516.399 415.527 519.385 415.527H638.107C641.092 415.527 643.513 413.106 643.513 410.12C643.513 407.135 641.092 404.714 638.107 404.714Z" fill="#EFF0F7"/>
<path d="M593.803 423.637H519.385C516.399 423.637 513.979 426.057 513.979 429.043C513.979 432.029 516.399 434.449 519.385 434.449H593.803C596.788 434.449 599.209 432.029 599.209 429.043C599.209 426.057 596.788 423.637 593.803 423.637Z" fill="#EFF0F7"/>
<g filter="url(#filter4_dd)">
<path d="M840.635 24.1279H576.279C561.35 24.1279 549.247 36.2305 549.247 51.1599V291.123C549.247 306.052 561.35 318.155 576.279 318.155H840.635C855.565 318.155 867.667 306.052 867.667 291.123V51.1599C867.667 36.2305 855.565 24.1279 840.635 24.1279Z" fill="white" fill-opacity="0.01"/>
</g>
<path d="M840.635 24.1279H576.279C561.35 24.1279 549.247 36.2305 549.247 51.1599V291.123C549.247 306.052 561.35 318.155 576.279 318.155H840.635C855.565 318.155 867.667 306.052 867.667 291.123V51.1599C867.667 36.2305 855.565 24.1279 840.635 24.1279Z" fill="white"/>
<g filter="url(#filter5_d)">
<path d="M573.708 46.8361C573.708 48.0085 573.36 49.1545 572.709 50.1293C572.057 51.1039 571.132 51.8637 570.049 52.3124C568.965 52.761 567.774 52.8783 566.624 52.6496C565.474 52.4209 564.418 51.8564 563.59 51.0274C562.76 50.1985 562.196 49.1424 561.966 47.9925C561.738 46.8427 561.856 45.6509 562.304 44.5679C562.753 43.4847 563.513 42.559 564.487 41.9077C565.462 41.2563 566.608 40.9087 567.781 40.9087C569.353 40.9087 570.86 41.5333 571.972 42.6448C573.083 43.7564 573.708 45.2641 573.708 46.8361Z" fill="#FF3951" fill-opacity="0.01"/>
</g>
<path d="M573.708 46.8361C573.708 48.0085 573.36 49.1545 572.709 50.1293C572.057 51.1039 571.132 51.8637 570.049 52.3124C568.965 52.761 567.774 52.8783 566.624 52.6496C565.474 52.4209 564.418 51.8564 563.59 51.0274C562.76 50.1985 562.196 49.1424 561.966 47.9925C561.738 46.8427 561.856 45.6509 562.304 44.5679C562.753 43.4847 563.513 42.559 564.487 41.9077C565.462 41.2563 566.608 40.9087 567.781 40.9087C569.353 40.9087 570.86 41.5333 571.972 42.6448C573.083 43.7564 573.708 45.2641 573.708 46.8361Z" fill="#FF3951"/>
<g filter="url(#filter6_d)">
<path d="M592.32 46.8376C592.32 48.0098 591.973 49.1558 591.321 50.1306C590.67 51.1054 589.744 51.8651 588.661 52.3137C587.577 52.7623 586.387 52.8798 585.236 52.6511C584.086 52.4224 583.031 51.8578 582.202 51.0289C581.372 50.1998 580.808 49.1437 580.579 47.9939C580.35 46.8441 580.468 45.6522 580.917 44.5692C581.365 43.4862 582.125 42.5603 583.099 41.9091C584.074 41.2578 585.22 40.9102 586.393 40.9102C587.965 40.9102 589.472 41.5346 590.585 42.6461C591.696 43.7578 592.32 45.2654 592.32 46.8376Z" fill="#FFC226" fill-opacity="0.01"/>
</g>
<path d="M592.32 46.8376C592.32 48.0098 591.973 49.1558 591.321 50.1306C590.67 51.1054 589.744 51.8651 588.661 52.3137C587.577 52.7623 586.387 52.8798 585.236 52.6511C584.086 52.4224 583.031 51.8578 582.202 51.0289C581.372 50.1998 580.808 49.1437 580.579 47.9939C580.35 46.8441 580.468 45.6522 580.917 44.5692C581.365 43.4862 582.125 42.5603 583.099 41.9091C584.074 41.2578 585.22 40.9102 586.393 40.9102C587.965 40.9102 589.472 41.5346 590.585 42.6461C591.696 43.7578 592.32 45.2654 592.32 46.8376Z" fill="#FFC226"/>
<g filter="url(#filter7_d)">
<path d="M610.933 46.8376C610.933 48.0098 610.586 49.1558 609.934 50.1306C609.283 51.1054 608.357 51.8651 607.274 52.3137C606.192 52.7623 605 52.8798 603.849 52.6511C602.699 52.4224 601.644 51.8578 600.815 51.0289C599.985 50.1998 599.422 49.1437 599.192 47.9939C598.963 46.8441 599.081 45.6522 599.53 44.5692C599.978 43.4862 600.738 42.5603 601.712 41.9091C602.687 41.2578 603.833 40.9102 605.006 40.9102C606.578 40.9102 608.085 41.5346 609.198 42.6461C610.309 43.7578 610.933 45.2654 610.933 46.8376Z" fill="#9AE886" fill-opacity="0.01"/>
</g>
<path d="M610.933 46.8376C610.933 48.0098 610.586 49.1558 609.934 50.1306C609.283 51.1054 608.357 51.8651 607.274 52.3137C606.192 52.7623 605 52.8798 603.849 52.6511C602.699 52.4224 601.644 51.8578 600.815 51.0289C599.985 50.1998 599.422 49.1437 599.192 47.9939C598.963 46.8441 599.081 45.6522 599.53 44.5692C599.978 43.4862 600.738 42.5603 601.712 41.9091C602.687 41.2578 603.833 40.9102 605.006 40.9102C606.578 40.9102 608.085 41.5346 609.198 42.6461C610.309 43.7578 610.933 45.2654 610.933 46.8376Z" fill="#9AE886"/>
<path d="M867.331 58.8506H548.911V60.8263H867.331V58.8506Z" fill="#F5F7FC"/>
<path d="M792.457 83.0542H584.153C581.167 83.0542 578.746 85.4748 578.746 88.4606C578.746 91.4465 581.167 93.867 584.153 93.867H792.457C795.442 93.867 797.863 91.4465 797.863 88.4606C797.863 85.4748 795.442 83.0542 792.457 83.0542Z" fill="#EFF0F7"/>
<path d="M655.559 101.976H584.153C581.167 101.976 578.746 104.397 578.746 107.382C578.746 110.368 581.167 112.789 584.153 112.789H655.559C658.546 112.789 660.965 110.368 660.965 107.382C660.965 104.397 658.546 101.976 655.559 101.976Z" fill="#EFF0F7"/>
<path d="M833.407 133.505H583.508C580.878 133.505 578.746 135.637 578.746 138.266C578.746 140.896 580.878 143.028 583.508 143.028H833.407C836.038 143.028 838.169 140.896 838.169 138.266C838.169 135.637 836.038 133.505 833.407 133.505Z" fill="#F5F7FC"/>
<g filter="url(#filter8_d)">
<path d="M711.433 133.504H591.949C589.318 133.504 587.187 135.636 587.187 138.266C587.187 140.896 589.318 143.028 591.947 143.028H711.433C714.063 143.028 716.194 140.896 716.194 138.266C716.194 135.636 714.063 133.504 711.433 133.504Z" fill="#FF3951" fill-opacity="0.01"/>
</g>
<path d="M711.433 133.504H591.949C589.318 133.504 587.187 135.636 587.187 138.266C587.187 140.896 589.318 143.028 591.947 143.028H711.433C714.063 143.028 716.194 140.896 716.194 138.266C716.194 135.636 714.063 133.504 711.433 133.504Z" fill="#624DE3"/>
<path d="M832.86 165.829H584.055C581.124 165.829 578.746 168.207 578.746 171.138C578.746 174.071 581.124 176.449 584.055 176.449H832.86C835.792 176.449 838.169 174.071 838.169 171.138C838.169 168.207 835.792 165.829 832.86 165.829Z" fill="#F5F7FC"/>
<g filter="url(#filter9_d)">
<path d="M783.742 165.829H591.949C589.318 165.829 587.187 167.961 587.187 170.591C587.187 173.22 589.318 175.352 591.947 175.352H783.742C786.372 175.352 788.503 173.22 788.503 170.591C788.503 167.961 786.372 165.829 783.742 165.829Z" fill="#FFC226" fill-opacity="0.01"/>
</g>
<path d="M783.742 165.829H591.949C589.318 165.829 587.187 167.961 587.187 170.591C587.187 173.22 589.318 175.352 591.947 175.352H783.742C786.372 175.352 788.503 173.22 788.503 170.591C788.503 167.961 786.372 165.829 783.742 165.829Z" fill="#CAB7FF"/>
<path d="M833.407 198.152H583.508C580.878 198.152 578.746 200.284 578.746 202.914C578.746 205.544 580.878 207.676 583.508 207.676H833.407C836.038 207.676 838.169 205.544 838.169 202.914C838.169 200.284 836.038 198.152 833.407 198.152Z" fill="#F5F7FC"/>
<g filter="url(#filter10_d)">
<path d="M632.885 198.152H591.949C589.318 198.152 587.187 200.284 587.187 202.914C587.187 205.544 589.318 207.676 591.949 207.676H632.885C635.515 207.676 637.646 205.544 637.646 202.914C637.646 200.284 635.515 198.152 632.885 198.152Z" fill="#FF3951" fill-opacity="0.01"/>
</g>
<path d="M632.885 198.152H591.949C589.318 198.152 587.187 200.284 587.187 202.914C587.187 205.544 589.318 207.676 591.949 207.676H632.885C635.515 207.676 637.646 205.544 637.646 202.914C637.646 200.284 635.515 198.152 632.885 198.152Z" fill="#624DE3"/>
<path d="M833.407 230.477H583.508C580.878 230.477 578.746 232.609 578.746 235.238C578.746 237.868 580.878 240 583.508 240H833.407C836.038 240 838.169 237.868 838.169 235.238C838.169 232.609 836.038 230.477 833.407 230.477Z" fill="#F5F7FC"/>
<g filter="url(#filter11_d)">
<path d="M742.334 230.478H591.949C589.318 230.478 587.187 232.609 587.187 235.239C587.187 237.868 589.318 240.001 591.949 240.001H742.334C744.964 240.001 747.096 237.868 747.096 235.239C747.096 232.609 744.964 230.478 742.334 230.478Z" fill="#FFC226" fill-opacity="0.01"/>
</g>
<path d="M742.334 230.478H591.949C589.318 230.478 587.187 232.609 587.187 235.239C587.187 237.868 589.318 240.001 591.949 240.001H742.334C744.964 240.001 747.096 237.868 747.096 235.239C747.096 232.609 744.964 230.478 742.334 230.478Z" fill="#CAB7FF"/>
<path d="M833.407 262.801H583.508C580.878 262.801 578.746 264.934 578.746 267.562C578.746 270.193 580.878 272.325 583.508 272.325H833.407C836.038 272.325 838.169 270.193 838.169 267.562C838.169 264.934 836.038 262.801 833.407 262.801Z" fill="#F5F7FC"/>
<g filter="url(#filter12_d)">
<path d="M766.067 262.801H591.949C589.318 262.801 587.187 264.934 587.187 267.562C587.187 270.193 589.318 272.325 591.949 272.325H766.067C768.697 272.325 770.828 270.193 770.828 267.562C770.828 264.934 768.697 262.801 766.067 262.801Z" fill="#FF3951" fill-opacity="0.01"/>
</g>
<path d="M766.067 262.801H591.949C589.318 262.801 587.187 264.934 587.187 267.562C587.187 270.193 589.318 272.325 591.949 272.325H766.067C768.697 272.325 770.828 270.193 770.828 267.562C770.828 264.934 768.697 262.801 766.067 262.801Z" fill="#624DE3"/>
<path d="M504.461 513.435C504.461 557.058 469.098 592.421 425.475 592.421C381.852 592.421 346.489 557.058 346.489 513.435C346.489 469.812 381.852 434.449 425.475 434.449C469.098 434.449 504.461 469.812 504.461 513.435ZM381.882 513.435C381.882 537.511 401.399 557.03 425.475 557.03C449.551 557.03 469.07 537.511 469.07 513.435C469.07 489.359 449.551 469.841 425.475 469.841C401.399 469.841 381.882 489.359 381.882 513.435Z" fill="#F5F7FC"/>
<g filter="url(#filter13_d)">
<path d="M433.811 452.588C442.366 453.76 450.58 456.723 457.914 461.285C465.246 465.846 471.535 471.903 476.37 479.061C481.203 486.217 484.474 494.312 485.966 502.819C487.459 511.326 487.141 520.051 485.032 528.426" stroke="#FFC226" stroke-opacity="0.01" stroke-width="35.1415" stroke-linecap="round"/>
</g>
<path d="M433.811 452.588C442.366 453.76 450.58 456.723 457.914 461.285C465.246 465.846 471.535 471.903 476.37 479.061C481.203 486.217 484.474 494.312 485.966 502.819C487.459 511.326 487.141 520.051 485.032 528.426" stroke="#CAB7FF" stroke-width="35.1415" stroke-linecap="round"/>
<g filter="url(#filter14_d)">
<path d="M375.732 477.414C384.984 464.639 398.796 455.913 414.305 453.044C429.816 450.176 445.835 453.384 459.043 462.005" stroke="#FF8139" stroke-opacity="0.01" stroke-width="35.1415" stroke-linecap="round"/>
</g>
<path d="M375.732 477.414C384.984 464.639 398.796 455.913 414.305 453.044C429.816 450.176 445.835 453.384 459.043 462.005" stroke="#14142B" stroke-width="35.1415" stroke-linecap="round"/>
<g filter="url(#filter15_d)">
<path d="M437.558 573.65C425.899 575.989 413.811 574.893 402.763 570.495C391.715 566.098 382.181 558.587 375.318 548.875C368.455 539.164 364.561 527.668 364.106 515.785C363.65 503.903 366.655 492.143 372.753 481.936" stroke="#FF3951" stroke-opacity="0.01" stroke-width="35.1415" stroke-linecap="round"/>
</g>
<path d="M437.558 573.65C425.899 575.989 413.811 574.893 402.763 570.495C391.715 566.098 382.181 558.587 375.318 548.875C368.455 539.164 364.561 527.668 364.106 515.785C363.65 503.903 366.655 492.143 372.753 481.936" stroke="#FF3951" stroke-width="35.1415" stroke-linecap="round"/>
<g filter="url(#filter16_d)">
<path d="M546.36 493.161C550.839 493.161 554.47 489.531 554.47 485.051C554.47 480.572 550.839 476.942 546.36 476.942C541.881 476.942 538.25 480.572 538.25 485.051C538.25 489.531 541.881 493.161 546.36 493.161Z" fill="#FF3951" fill-opacity="0.01"/>
</g>
<path d="M546.36 493.161C550.839 493.161 554.47 489.531 554.47 485.051C554.47 480.572 550.839 476.942 546.36 476.942C541.881 476.942 538.25 480.572 538.25 485.051C538.25 489.531 541.881 493.161 546.36 493.161Z" fill="#171347"/>
<path d="M630.348 480.996H565.283C563.043 480.996 561.228 482.811 561.228 485.051C561.228 487.29 563.043 489.106 565.283 489.106H630.348C632.587 489.106 634.403 487.29 634.403 485.051C634.403 482.811 632.587 480.996 630.348 480.996Z" fill="#EFF0F7"/>
<g filter="url(#filter17_d)">
<path d="M546.36 521.544C550.839 521.544 554.47 517.913 554.47 513.434C554.47 508.955 550.839 505.325 546.36 505.325C541.881 505.325 538.25 508.955 538.25 513.434C538.25 517.913 541.881 521.544 546.36 521.544Z" fill="#FF8139" fill-opacity="0.01"/>
</g>
<path d="M546.36 521.544C550.839 521.544 554.47 517.913 554.47 513.434C554.47 508.955 550.839 505.325 546.36 505.325C541.881 505.325 538.25 508.955 538.25 513.434C538.25 517.913 541.881 521.544 546.36 521.544Z" fill="#7545FF"/>
<path d="M630.348 509.38H565.283C563.043 509.38 561.228 511.195 561.228 513.435C561.228 515.674 563.043 517.489 565.283 517.489H630.348C632.587 517.489 634.403 515.674 634.403 513.435C634.403 511.195 632.587 509.38 630.348 509.38Z" fill="#EFF0F7"/>
<g filter="url(#filter18_d)">
<path d="M546.36 549.928C550.839 549.928 554.47 546.298 554.47 541.819C554.47 537.339 550.839 533.709 546.36 533.709C541.881 533.709 538.25 537.339 538.25 541.819C538.25 546.298 541.881 549.928 546.36 549.928Z" fill="#FFC226" fill-opacity="0.01"/>
</g>
<path d="M546.36 549.928C550.839 549.928 554.47 546.298 554.47 541.819C554.47 537.339 550.839 533.709 546.36 533.709C541.881 533.709 538.25 537.339 538.25 541.819C538.25 546.298 541.881 549.928 546.36 549.928Z" fill="#CAB7FF"/>
<path d="M630.348 537.763H565.283C563.043 537.763 561.228 539.578 561.228 541.818C561.228 544.058 563.043 545.873 565.283 545.873H630.348C632.587 545.873 634.403 544.058 634.403 541.818C634.403 539.578 632.587 537.763 630.348 537.763Z" fill="#EFF0F7"/>
<g filter="url(#filter19_dd)">
<path d="M489.139 21.6255H205.025C190.096 21.6255 177.993 33.7281 177.993 48.6574V288.62C177.993 303.55 190.096 315.652 205.025 315.652H489.139C504.069 315.652 516.171 303.55 516.171 288.62V48.6574C516.171 33.7281 504.069 21.6255 489.139 21.6255Z" fill="white" fill-opacity="0.01"/>
</g>
<path d="M489.139 21.6255H205.025C190.096 21.6255 177.993 33.7281 177.993 48.6574V288.62C177.993 303.55 190.096 315.652 205.025 315.652H489.139C504.069 315.652 516.171 303.55 516.171 288.62V48.6574C516.171 33.7281 504.069 21.6255 489.139 21.6255Z" fill="white"/>
<path d="M516.171 57.4937H177.993V59.4696H516.171V57.4937Z" fill="#F5F7FC"/>
<path d="M451.781 81.6973H242.422C239.728 81.6973 237.543 83.8818 237.543 86.5765C237.543 89.2713 239.728 91.4558 242.422 91.4558H451.781C454.475 91.4558 456.66 89.2713 456.66 86.5765C456.66 83.8818 454.475 81.6973 451.781 81.6973Z" fill="#EFF0F7"/>
<path d="M414.3 99.5645H279.884C277.189 99.5645 275.005 101.749 275.005 104.444C275.005 107.139 277.189 109.323 279.884 109.323H414.3C416.995 109.323 419.179 107.139 419.179 104.444C419.179 101.749 416.995 99.5645 414.3 99.5645Z" fill="#EFF0F7"/>
<g filter="url(#filter20_d)">
<path d="M426.827 167.626V278.589C426.827 283.067 430.457 286.699 434.936 286.699C439.414 286.699 443.046 283.067 443.046 278.589V167.626C443.046 163.147 439.414 159.516 434.936 159.516C430.457 159.516 426.827 163.147 426.827 167.626Z" fill="#FFC226" fill-opacity="0.01"/>
</g>
<path d="M426.827 167.626V278.589C426.827 283.067 430.457 286.699 434.936 286.699C439.414 286.699 443.046 283.067 443.046 278.589V167.626C443.046 163.147 439.414 159.516 434.936 159.516C430.457 159.516 426.827 163.147 426.827 167.626Z" fill="#CAB7FF"/>
<path d="M391.685 184.559V278.569C391.685 283.048 395.315 286.679 399.795 286.679C404.272 286.679 407.904 283.048 407.904 278.569V184.559C407.904 180.08 404.272 176.449 399.795 176.449C395.315 176.449 391.685 180.08 391.685 184.559Z" fill="#624DE3"/>
<g filter="url(#filter21_d)">
<path d="M356.543 243.852V278.569C356.543 283.048 360.174 286.678 364.653 286.678C369.131 286.678 372.763 283.048 372.763 278.569V243.852C372.763 239.373 369.131 235.742 364.653 235.742C360.174 235.742 356.543 239.373 356.543 243.852Z" fill="#FFC226" fill-opacity="0.01"/>
</g>
<path d="M356.543 243.852V278.569C356.543 283.048 360.174 286.678 364.653 286.678C369.131 286.678 372.763 283.048 372.763 278.569V243.852C372.763 239.373 369.131 235.742 364.653 235.742C360.174 235.742 356.543 239.373 356.543 243.852Z" fill="#CAB7FF"/>
<path d="M321.402 155.04V278.569C321.402 283.048 325.032 286.679 329.512 286.679C333.99 286.679 337.621 283.048 337.621 278.569V155.04C337.621 150.561 333.99 146.93 329.512 146.93C325.032 146.93 321.402 150.561 321.402 155.04Z" fill="#624DE3"/>
<g filter="url(#filter22_d)">
<path d="M286.26 143.976V278.569C286.26 283.048 289.891 286.679 294.37 286.679C298.848 286.679 302.48 283.048 302.48 278.569V143.976C302.48 139.497 298.848 135.866 294.37 135.866C289.891 135.866 286.26 139.497 286.26 143.976Z" fill="#FFC226" fill-opacity="0.01"/>
</g>
<path d="M286.26 143.976V278.569C286.26 283.048 289.891 286.679 294.37 286.679C298.848 286.679 302.48 283.048 302.48 278.569V143.976C302.48 139.497 298.848 135.866 294.37 135.866C289.891 135.866 286.26 139.497 286.26 143.976Z" fill="#CAB7FF"/>
<path d="M251.119 199.238V278.569C251.119 283.048 254.75 286.679 259.228 286.679C263.707 286.679 267.338 283.048 267.338 278.569V199.238C267.338 194.759 263.707 191.129 259.228 191.129C254.75 191.129 251.119 194.759 251.119 199.238Z" fill="#624DE3"/>
<g filter="url(#filter23_d)">
<path d="M204.2 45.4802C204.2 46.6525 203.852 47.7986 203.201 48.7732C202.55 49.748 201.624 50.5077 200.541 50.9564C199.458 51.405 198.266 51.5223 197.116 51.2936C195.966 51.065 194.91 50.5004 194.081 49.6715C193.252 48.8425 192.688 47.7864 192.459 46.6366C192.23 45.4868 192.348 44.2949 192.796 43.2119C193.245 42.1287 194.005 41.203 194.979 40.5517C195.954 39.9004 197.1 39.5527 198.272 39.5527C199.845 39.5527 201.352 40.1773 202.464 41.2889C203.575 42.4004 204.2 43.9081 204.2 45.4802Z" fill="#FF3951" fill-opacity="0.01"/>
</g>
<path d="M204.2 45.4802C204.2 46.6525 203.852 47.7986 203.201 48.7732C202.55 49.748 201.624 50.5077 200.541 50.9564C199.458 51.405 198.266 51.5223 197.116 51.2936C195.966 51.065 194.91 50.5004 194.081 49.6715C193.252 48.8425 192.688 47.7864 192.459 46.6366C192.23 45.4868 192.348 44.2949 192.796 43.2119C193.245 42.1287 194.005 41.203 194.979 40.5517C195.954 39.9004 197.1 39.5527 198.272 39.5527C199.845 39.5527 201.352 40.1773 202.464 41.2889C203.575 42.4004 204.2 43.9081 204.2 45.4802Z" fill="#FF3951"/>
<g filter="url(#filter24_d)">
<path d="M221.461 45.4802C221.461 46.6525 221.113 47.7986 220.462 48.7732C219.811 49.748 218.885 50.5077 217.802 50.9564C216.719 51.405 215.527 51.5223 214.377 51.2936C213.227 51.065 212.171 50.5004 211.342 49.6715C210.513 48.8425 209.949 47.7864 209.72 46.6366C209.491 45.4868 209.609 44.2949 210.057 43.2119C210.506 42.1287 211.266 41.203 212.241 40.5517C213.215 39.9004 214.361 39.5527 215.534 39.5527C217.106 39.5527 218.613 40.1773 219.725 41.2889C220.836 42.4004 221.461 43.9081 221.461 45.4802Z" fill="#FFC226" fill-opacity="0.01"/>
</g>
<path d="M221.461 45.4802C221.461 46.6525 221.113 47.7986 220.462 48.7732C219.811 49.748 218.885 50.5077 217.802 50.9564C216.719 51.405 215.527 51.5223 214.377 51.2936C213.227 51.065 212.171 50.5004 211.342 49.6715C210.513 48.8425 209.949 47.7864 209.72 46.6366C209.491 45.4868 209.609 44.2949 210.057 43.2119C210.506 42.1287 211.266 41.203 212.241 40.5517C213.215 39.9004 214.361 39.5527 215.534 39.5527C217.106 39.5527 218.613 40.1773 219.725 41.2889C220.836 42.4004 221.461 43.9081 221.461 45.4802Z" fill="#FFC226"/>
<g filter="url(#filter25_d)">
<path d="M238.723 45.4802C238.723 46.6525 238.375 47.7986 237.724 48.7732C237.072 49.748 236.147 50.5077 235.063 50.9564C233.98 51.405 232.789 51.5223 231.639 51.2936C230.489 51.065 229.433 50.5004 228.604 49.6715C227.775 48.8425 227.21 47.7864 226.982 46.6366C226.753 45.4868 226.87 44.2949 227.319 43.2119C227.768 42.1287 228.527 41.203 229.502 40.5517C230.477 39.9004 231.623 39.5527 232.795 39.5527C234.367 39.5527 235.875 40.1773 236.986 41.2889C238.098 42.4004 238.723 43.9081 238.723 45.4802Z" fill="#9AE886" fill-opacity="0.01"/>
</g>
<path d="M238.723 45.4802C238.723 46.6525 238.375 47.7986 237.724 48.7732C237.072 49.748 236.147 50.5077 235.063 50.9564C233.98 51.405 232.789 51.5223 231.639 51.2936C230.489 51.065 229.433 50.5004 228.604 49.6715C227.775 48.8425 227.21 47.7864 226.982 46.6366C226.753 45.4868 226.87 44.2949 227.319 43.2119C227.768 42.1287 228.527 41.203 229.502 40.5517C230.477 39.9004 231.623 39.5527 232.795 39.5527C234.367 39.5527 235.875 40.1773 236.986 41.2889C238.098 42.4004 238.723 43.9081 238.723 45.4802Z" fill="#9AE886"/>
<g clip-path="url(#clip0)">
<path d="M335.396 328.854L361.77 310.546C361.77 310.546 364.302 297.631 367.56 294.598C372.036 291.377 390.327 283.307 396.617 285.538C401.552 287.647 401.532 313.855 396.617 315.182C391.7 316.511 372.036 322.608 372.036 322.608L343.893 345.392L335.396 328.854Z" fill="#FFD5BD"/>
<path d="M171.677 334.67C171.677 334.67 172.856 335.769 174.812 337.725C179.424 342.228 189.77 351.315 200.492 361.045C221.934 378.628 248.39 398.276 264.821 396.775C294.306 394.094 358.635 341.853 358.635 341.853L346.519 319.605C346.519 319.605 299.666 350.752 271.521 357.293C243.377 363.832 197.811 279.722 175.938 273.852L171.677 334.67Z" fill="#0048F0"/>
<path d="M343.141 318.011C342.334 318.384 341.998 319.349 342.396 320.143L355.196 345.653C355.738 346.73 357.242 346.823 357.91 345.82L361.262 340.79C361.577 340.32 361.613 339.716 361.358 339.211L349.938 316.54C349.556 315.782 348.643 315.464 347.874 315.821L343.141 318.011Z" fill="#14142A"/>
<path opacity="0.2" d="M174.732 337.724C179.344 342.227 188.858 351.314 200.33 361.043C195.13 337.295 178.592 317.702 178.592 317.702L174.732 337.724Z" fill="#14142B"/>
<path d="M172.4 945.881L194.139 948.16L198.213 901.279L176.476 898.974L172.4 945.881Z" fill="#FFD5BD"/>
<path d="M63.8977 944.299H84.9657L86.7079 895.489H65.6131L63.8977 944.299Z" fill="#FFD5BD"/>
<path d="M87.9139 941.859H62.3162C61.4584 941.859 60.7078 942.449 60.5202 943.308L56.3656 962.07C56.0441 963.786 57.1697 965.448 58.8853 965.77C59.0729 965.797 59.2605 965.824 59.448 965.824C67.7305 965.688 73.7614 965.179 84.1614 965.179C90.5676 965.179 109.893 965.85 118.739 965.85C127.584 965.85 128.736 957.111 125.118 956.308C108.875 952.77 96.6521 947.864 91.452 943.201C90.4871 942.315 89.2273 941.833 87.9139 941.859Z" fill="#171347"/>
<path d="M94.8559 945.559C96.2765 945.666 97.724 945.291 98.9034 944.486C99.6806 943.816 100.083 942.824 99.9487 941.805C99.9754 941.216 99.627 940.653 99.091 940.412C96.759 939.206 89.9508 943.387 89.2003 943.87C89.0127 943.95 88.9055 944.166 88.9591 944.353C88.9858 944.566 89.1467 944.728 89.3343 944.782C91.1302 945.236 92.9796 945.505 94.8559 945.559ZM97.9921 941.189C98.2064 941.162 98.4477 941.216 98.6353 941.324C98.7693 941.324 98.9301 941.511 98.9569 941.914C99.0374 942.584 98.7962 943.254 98.2869 943.71C95.9281 944.782 93.2477 944.915 90.7818 944.084C92.9798 942.664 95.4188 941.672 97.9921 941.189Z" fill="#FF3951"/>
<path d="M89.4681 944.807H89.7095C91.8806 943.628 96.0888 938.991 95.6598 936.766C95.4992 935.989 94.829 935.453 94.0517 935.453C93.2743 935.346 92.5238 935.587 91.9342 936.096C89.495 938.079 88.9857 944.137 88.959 944.433C88.959 944.62 89.0393 944.78 89.2002 944.887C89.3074 944.887 89.3878 944.861 89.4681 944.807ZM93.7032 936.257H93.9444C94.5877 936.257 94.6413 936.632 94.668 936.766C94.9361 938.134 92.2557 941.645 90.0846 943.28C90.2186 940.867 91.1032 938.588 92.5774 936.686C92.8722 936.419 93.2743 936.257 93.7032 936.257Z" fill="#FF3951"/>
<path d="M196.444 941.19H170.846C169.988 941.19 169.238 941.78 169.049 942.637L164.895 961.399C164.573 963.115 165.699 964.777 167.414 965.099C167.603 965.126 167.79 965.153 167.977 965.153C176.26 965.019 182.292 964.509 192.691 964.509C199.097 964.509 218.423 965.179 227.269 965.179C236.113 965.179 237.266 956.442 233.648 955.637C217.404 952.099 205.182 947.193 199.982 942.53C199.017 941.646 197.757 941.163 196.444 941.19Z" fill="#171347"/>
<path d="M203.413 944.889C204.833 944.996 206.281 944.621 207.46 943.816C208.237 943.147 208.639 942.154 208.506 941.135C208.532 940.546 208.183 939.983 207.647 939.742C205.315 938.536 198.507 942.717 197.757 943.2C197.57 943.28 197.461 943.496 197.517 943.683C197.543 943.897 197.704 944.058 197.891 944.112C199.686 944.566 201.537 944.835 203.413 944.889ZM206.548 940.439C206.763 940.412 207.004 940.466 207.193 940.573C207.326 940.573 207.487 940.761 207.513 941.162C207.594 941.834 207.353 942.503 206.844 942.959C204.485 944.032 201.804 944.165 199.339 943.334C201.537 941.914 203.976 940.922 206.548 940.439Z" fill="#FF3951"/>
<path d="M198.024 944.138H198.267C200.438 942.958 204.646 938.322 204.216 936.097C204.056 935.32 203.386 934.784 202.608 934.784C201.831 934.677 201.081 934.917 200.491 935.427C198.051 937.41 197.543 943.468 197.517 943.763C197.517 943.951 197.597 944.111 197.757 944.218C197.864 944.218 197.944 944.191 198.024 944.138ZM202.26 935.587H202.501C203.144 935.587 203.197 935.963 203.226 936.097C203.493 937.465 200.812 940.976 198.641 942.611C198.776 940.197 199.66 937.919 201.135 936.016C201.429 935.749 201.831 935.587 202.26 935.587Z" fill="#FF3951"/>
<path opacity="0.2" d="M176.475 898.974L198.213 901.279L196.095 925.457L174.357 923.178L176.475 898.974Z" fill="#14142B"/>
<path opacity="0.2" d="M65.6131 895.516H86.7079L85.7965 920.685H64.7018L65.6131 895.516Z" fill="#14142B"/>
<path d="M74.3249 467.349H186.152C196.872 525.406 230.056 730.885 206.174 913.983L168.326 909.293C168.326 909.293 171.837 666.235 138.413 576.388C134.553 624.473 129.997 675.562 126.03 702.848C116.3 769.859 95.4732 916.315 95.4732 916.315H56.9291C56.9291 916.315 64.8094 776.131 68.4547 710.273C72.4486 638.786 74.164 482.091 74.3249 467.349Z" fill="#EE283C"/>
<path opacity="0.2" d="M138.413 576.388C143.908 592.148 148.089 608.311 150.904 624.769C154.04 581.882 141.522 536.584 141.522 536.584L138.413 576.388Z" fill="#14142B"/>
<path d="M211.197 920.017C210.81 921.596 209.287 922.62 207.68 922.381L166.654 916.278C164.983 916.03 163.807 914.505 163.991 912.826L164.733 906.052C164.925 904.3 166.519 903.047 168.268 903.277L210.356 908.783C212.215 909.027 213.449 910.83 213.002 912.649L211.197 920.017Z" fill="#D9DBE9"/>
<path d="M100.439 913.864C100.251 915.445 98.9096 916.637 97.316 916.637H57.7951C56.0583 916.637 54.6504 915.23 54.6504 913.493V906.134C54.6504 904.42 56.0226 903.022 57.7361 902.989L98.2191 902.232C100.126 902.195 101.625 903.851 101.401 905.746L100.439 913.864Z" fill="#D9DBE9"/>
<path d="M187.089 468.688H74.5121V482.091L188.537 480.698L187.089 468.688Z" fill="#14142B"/>
<path d="M112.27 462.659H113.146C114.014 462.659 114.718 463.362 114.718 464.231V484.889C114.718 485.756 114.014 486.461 113.146 486.461H112.27C111.401 486.461 110.697 485.756 110.697 484.889V464.231C110.697 463.362 111.401 462.659 112.27 462.659Z" fill="#6E7191"/>
<path d="M169.229 462.659H170.104C170.972 462.659 171.677 463.362 171.677 464.231V484.889C171.677 485.756 170.972 486.461 170.104 486.461H169.229C168.361 486.461 167.656 485.756 167.656 484.889V464.231C167.656 463.362 168.361 462.659 169.229 462.659Z" fill="#6E7191"/>
<path d="M138.904 466.356H153.442C155.178 466.356 156.586 467.765 156.586 469.501V478.223C156.586 479.959 155.178 481.368 153.442 481.368H138.904C137.168 481.368 135.76 479.959 135.76 478.223V469.501C135.76 467.765 137.168 466.356 138.904 466.356Z" fill="white"/>
<path d="M175.938 273.852C175.938 273.852 104.801 270.501 51.8092 283.876C51.8092 283.876 75.2092 401.68 74.3246 468.691H187.089C187.089 468.691 194.406 343.007 175.938 273.852Z" fill="#0048F0"/>
<path d="M137.032 282.781C137.987 282.835 138.672 283.724 138.482 284.662L135.935 297.26C135.89 297.484 135.886 297.682 135.939 297.905C137.142 302.953 152.919 369.562 156.593 405.429C156.641 405.899 156.471 406.35 156.135 406.683L151.258 411.518C150.737 412.036 149.928 412.122 149.308 411.729L141.25 406.613C140.801 406.328 140.527 405.836 140.518 405.305C140.391 396.959 139.12 329.385 131.115 299.41C131.031 299.095 130.852 298.829 130.6 298.622L117.668 288.032C116.706 287.244 116.996 285.704 118.179 285.32L127.384 282.333C127.569 282.272 127.765 282.247 127.959 282.258L137.032 282.781Z" fill="#14142B"/>
<path d="M154.093 177.865C154.093 177.865 158.489 206.894 143.077 218.071C127.665 229.249 127.665 175.185 127.665 175.185L154.093 177.865Z" fill="#14142B"/>
<path d="M92.2567 276.37C102.523 285.698 127.665 282.24 127.665 282.24C127.665 282.24 143.372 277.952 140.075 273.047C130.828 271.519 126.351 267.203 124.502 261.682C123.483 258.251 123.162 254.659 123.564 251.121C123.725 249.137 123.966 247.181 124.341 245.224L93.2753 222.092C97.3227 237.397 102.308 265.354 92.2567 276.37Z" fill="#FFD5BD"/>
<path opacity="0.2" d="M100.432 236.835C101.665 255.598 116.997 260.637 124.555 261.682C123.537 258.251 123.215 254.66 123.617 251.121L100.432 236.835Z" fill="#14142B"/>
<path d="M98.3415 241.149C104.989 250.987 117.372 255.168 128.603 251.362C135.706 249.11 141.71 244.232 145.356 237.719C145.865 236.861 146.321 235.95 146.749 235.038C154.335 217.294 156.747 186.255 137.985 174.622C124.609 166.232 106.972 170.253 98.5827 183.628C96.224 187.381 94.7765 191.642 94.3476 196.065C92.0425 216.731 89.7106 228.873 98.3415 241.149Z" fill="#FFD5BD"/>
<path d="M124.582 207.135C124.18 208.77 124.957 210.298 126.056 210.486C127.155 210.674 128.281 209.467 128.576 207.806C128.871 206.144 128.174 204.643 127.102 204.455C126.029 204.267 124.904 205.42 124.582 207.135Z" fill="#14142B"/>
<path d="M143.533 210.352C143.13 211.988 143.908 213.542 145.007 213.73C146.106 213.917 147.205 212.684 147.5 211.049C147.794 209.414 147.124 207.86 146.025 207.672C144.926 207.484 143.801 208.691 143.533 210.352Z" fill="#14142B"/>
<path d="M137.367 210.165C138.493 215.606 140.369 220.887 142.916 225.845C140.289 227.078 137.233 227.078 134.606 225.845L137.367 210.165Z" fill="#FF97B8"/>
<path d="M119.758 199.979C120.106 200.086 120.508 200.006 120.776 199.765C122.572 197.969 125.119 197.165 127.638 197.54C128.174 197.674 128.71 197.352 128.844 196.816C128.978 196.28 128.657 195.744 128.121 195.61C124.958 195.047 121.714 196.039 119.436 198.291C119.061 198.666 119.034 199.282 119.409 199.658L119.436 199.684C119.516 199.792 119.624 199.899 119.758 199.979Z" fill="#14142B"/>
<path d="M130.425 234.181C125.44 234.101 120.803 231.581 118.015 227.427C117.854 227.186 117.935 226.864 118.176 226.73L118.203 226.703C118.444 226.569 118.739 226.623 118.9 226.864C121.553 230.643 125.842 232.948 130.452 233.082C130.72 233.109 130.935 233.324 130.961 233.592C130.961 233.86 130.72 234.101 130.452 234.101L130.425 234.181Z" fill="#14142B"/>
<path d="M152.78 205.206C152.941 205.314 153.155 205.367 153.343 205.367C153.879 205.233 154.174 204.67 154.04 204.161C154.04 204.161 154.04 204.161 154.04 204.134C153.209 201.025 150.931 198.505 147.902 197.406C147.392 197.246 146.856 197.514 146.695 198.023C146.695 198.05 146.696 198.05 146.669 198.077C146.508 198.613 146.803 199.149 147.339 199.309C149.671 200.248 151.44 202.231 152.11 204.67C152.244 204.938 152.485 205.153 152.78 205.206Z" fill="#14142B"/>
<path d="M113.834 172.962V182.209C110.51 183.362 108.58 186.819 109.358 190.25C111.368 198.291 105.552 209.656 99.0917 213.704C99.0917 213.704 99.3061 210.353 96.4113 210.782C93.5165 211.211 92.1495 228.66 96.6258 237.586C96.6258 237.586 89.2546 229.116 86.7887 210.353C84.5371 192.984 85.6898 178.912 89.9516 172.828L113.834 172.962Z" fill="#14142B"/>
<path d="M89.9519 175.641C89.9519 175.641 83.0097 159.987 108.902 156.423C134.795 152.858 162.081 163.124 162.081 163.124C162.081 163.124 163.422 187.944 141.469 187.703C120.08 187.462 89.9519 175.641 89.9519 175.641Z" fill="#14142B"/>
<path d="M82.5532 211.371C84.0542 216.41 87.4852 220.672 92.0955 223.191C98.2336 226.488 102.817 221.342 102.388 214.775C101.959 208.905 98.3408 199.952 91.5326 199.443C84.7243 198.934 80.7306 205.152 82.5532 211.371Z" fill="#FFD5BD"/>
<path d="M96.8399 264.523L126.566 277.925L128.308 267.203L139.217 271.036C143.157 272.403 145.623 276.317 145.168 280.445L143.961 292.238L128.871 283.983L121.366 294.704L85.6627 277.523L96.8399 264.523Z" fill="#CAB7FF"/>
<path opacity="0.2" d="M61.5657 339.307C63.442 351.181 65.3986 364.235 67.1945 377.689C74.4315 363.323 75.2089 346.598 69.3925 331.613L61.5657 339.307Z" fill="#14142B"/>
<path d="M51.809 283.876C38.9968 289.773 -2.62985 373.268 0.130956 420.415C2.81135 466.357 74.512 523.638 74.512 523.638C74.512 523.638 90.0315 511.04 92.2026 500.211C92.2026 500.211 41.6772 447.863 40.3369 420.415C39.0235 393.451 68.4811 345.363 68.4811 345.363C68.4811 345.363 71.8316 325.261 65.8007 307.839C59.7698 290.416 51.809 283.876 51.809 283.876Z" fill="#0048F0"/>
<path d="M92.2031 489.06C92.2031 489.06 80.5166 515.276 70.7599 520.582C70.7599 520.582 68.6424 529.454 77.1392 541.517C85.6362 553.578 118.391 512.112 92.2031 489.06Z" fill="#CAB7FF"/>
</g>
<defs>
<filter id="filter0_dd" x="307.289" y="324.404" width="378.726" height="341.522" filterUnits="userSpaceOnUse" color-interpolation-filters="sRGB">
<feFlood flood-opacity="0" result="BackgroundImageFix"/>
<feColorMatrix in="SourceAlpha" type="matrix" values="0 0 0 0 0 0 0 0 0 0 0 0 0 0 0 0 0 0 127 0" result="hardAlpha"/>
<feOffset dy="9.46118"/>
<feGaussianBlur stdDeviation="9.46118"/>
<feColorMatrix type="matrix" values="0 0 0 0 0.078875 0 0 0 0 0.0770833 0 0 0 0 0.166667 0 0 0 0.03 0"/>
<feBlend mode="normal" in2="BackgroundImageFix" result="effect1_dropShadow"/>
<feColorMatrix in="SourceAlpha" type="matrix" values="0 0 0 0 0 0 0 0 0 0 0 0 0 0 0 0 0 0 127 0" result="hardAlpha"/>
<feOffset dy="-1.3516"/>
<feGaussianBlur stdDeviation="10.137"/>
<feColorMatrix type="matrix" values="0 0 0 0 0.078875 0 0 0 0 0.0770833 0 0 0 0 0.166667 0 0 0 0.02 0"/>
<feBlend mode="normal" in2="effect1_dropShadow" result="effect2_dropShadow"/>
<feBlend mode="normal" in="SourceGraphic" in2="effect2_dropShadow" result="shape"/>
</filter>
<filter id="filter1_d" x="329.751" y="353.332" width="33.4795" height="33.4805" filterUnits="userSpaceOnUse" color-interpolation-filters="sRGB">
<feFlood flood-opacity="0" result="BackgroundImageFix"/>
<feColorMatrix in="SourceAlpha" type="matrix" values="0 0 0 0 0 0 0 0 0 0 0 0 0 0 0 0 0 0 127 0" result="hardAlpha"/>
<feOffset dy="2.70319"/>
<feGaussianBlur stdDeviation="5.40639"/>
<feColorMatrix type="matrix" values="0 0 0 0 1 0 0 0 0 0.223529 0 0 0 0 0.317647 0 0 0 0.14 0"/>
<feBlend mode="normal" in2="BackgroundImageFix" result="effect1_dropShadow"/>
<feBlend mode="normal" in="SourceGraphic" in2="effect1_dropShadow" result="shape"/>
</filter>
<filter id="filter2_d" x="348.363" y="354.684" width="30.7763" height="30.7773" filterUnits="userSpaceOnUse" color-interpolation-filters="sRGB">
<feFlood flood-opacity="0" result="BackgroundImageFix"/>
<feColorMatrix in="SourceAlpha" type="matrix" values="0 0 0 0 0 0 0 0 0 0 0 0 0 0 0 0 0 0 127 0" result="hardAlpha"/>
<feOffset dy="2.70319"/>
<feGaussianBlur stdDeviation="4.73059"/>
<feColorMatrix type="matrix" values="0 0 0 0 1 0 0 0 0 0.760784 0 0 0 0 0.14902 0 0 0 0.14 0"/>
<feBlend mode="normal" in2="BackgroundImageFix" result="effect1_dropShadow"/>
<feBlend mode="normal" in="SourceGraphic" in2="effect1_dropShadow" result="shape"/>
</filter>
<filter id="filter3_d" x="366.977" y="356.036" width="28.0741" height="28.0741" filterUnits="userSpaceOnUse" color-interpolation-filters="sRGB">
<feFlood flood-opacity="0" result="BackgroundImageFix"/>
<feColorMatrix in="SourceAlpha" type="matrix" values="0 0 0 0 0 0 0 0 0 0 0 0 0 0 0 0 0 0 127 0" result="hardAlpha"/>
<feOffset dy="2.70319"/>
<feGaussianBlur stdDeviation="4.05479"/>
<feColorMatrix type="matrix" values="0 0 0 0 0.603922 0 0 0 0 0.909804 0 0 0 0 0.52549 0 0 0 0.29 0"/>
<feBlend mode="normal" in2="BackgroundImageFix" result="effect1_dropShadow"/>
<feBlend mode="normal" in="SourceGraphic" in2="effect1_dropShadow" result="shape"/>
</filter>
<filter id="filter4_dd" x="524.919" y="2.50238" width="367.077" height="348.091" filterUnits="userSpaceOnUse" color-interpolation-filters="sRGB">
<feFlood flood-opacity="0" result="BackgroundImageFix"/>
<feColorMatrix in="SourceAlpha" type="matrix" values="0 0 0 0 0 0 0 0 0 0 0 0 0 0 0 0 0 0 127 0" result="hardAlpha"/>
<feOffset dy="8.10958"/>
<feGaussianBlur stdDeviation="12.1644"/>
<feColorMatrix type="matrix" values="0 0 0 0 0.0987208 0 0 0 0 0.0910417 0 0 0 0 0.475 0 0 0 0.02 0"/>
<feBlend mode="normal" in2="BackgroundImageFix" result="effect1_dropShadow"/>
<feColorMatrix in="SourceAlpha" type="matrix" values="0 0 0 0 0 0 0 0 0 0 0 0 0 0 0 0 0 0 127 0" result="hardAlpha"/>
<feOffset dy="-1.3516"/>
<feGaussianBlur stdDeviation="10.137"/>
<feColorMatrix type="matrix" values="0 0 0 0 0.078875 0 0 0 0 0.0770833 0 0 0 0 0.166667 0 0 0 0.04 0"/>
<feBlend mode="normal" in2="effect1_dropShadow" result="effect2_dropShadow"/>
<feBlend mode="normal" in="SourceGraphic" in2="effect2_dropShadow" result="shape"/>
</filter>
<filter id="filter5_d" x="551.04" y="32.7991" width="33.4805" height="33.4804" filterUnits="userSpaceOnUse" color-interpolation-filters="sRGB">
<feFlood flood-opacity="0" result="BackgroundImageFix"/>
<feColorMatrix in="SourceAlpha" type="matrix" values="0 0 0 0 0 0 0 0 0 0 0 0 0 0 0 0 0 0 127 0" result="hardAlpha"/>
<feOffset dy="2.70319"/>
<feGaussianBlur stdDeviation="5.40639"/>
<feColorMatrix type="matrix" values="0 0 0 0 1 0 0 0 0 0.223529 0 0 0 0 0.317647 0 0 0 0.14 0"/>
<feBlend mode="normal" in2="BackgroundImageFix" result="effect1_dropShadow"/>
<feBlend mode="normal" in="SourceGraphic" in2="effect1_dropShadow" result="shape"/>
</filter>
<filter id="filter6_d" x="571.004" y="34.1522" width="30.7773" height="30.7771" filterUnits="userSpaceOnUse" color-interpolation-filters="sRGB">
<feFlood flood-opacity="0" result="BackgroundImageFix"/>
<feColorMatrix in="SourceAlpha" type="matrix" values="0 0 0 0 0 0 0 0 0 0 0 0 0 0 0 0 0 0 127 0" result="hardAlpha"/>
<feOffset dy="2.70319"/>
<feGaussianBlur stdDeviation="4.73059"/>
<feColorMatrix type="matrix" values="0 0 0 0 1 0 0 0 0 0.760784 0 0 0 0 0.14902 0 0 0 0.14 0"/>
<feBlend mode="normal" in2="BackgroundImageFix" result="effect1_dropShadow"/>
<feBlend mode="normal" in="SourceGraphic" in2="effect1_dropShadow" result="shape"/>
</filter>
<filter id="filter7_d" x="590.969" y="35.5038" width="28.0741" height="28.0739" filterUnits="userSpaceOnUse" color-interpolation-filters="sRGB">
<feFlood flood-opacity="0" result="BackgroundImageFix"/>
<feColorMatrix in="SourceAlpha" type="matrix" values="0 0 0 0 0 0 0 0 0 0 0 0 0 0 0 0 0 0 127 0" result="hardAlpha"/>
<feOffset dy="2.70319"/>
<feGaussianBlur stdDeviation="4.05479"/>
<feColorMatrix type="matrix" values="0 0 0 0 0.603922 0 0 0 0 0.909804 0 0 0 0 0.52549 0 0 0 0.29 0"/>
<feBlend mode="normal" in2="BackgroundImageFix" result="effect1_dropShadow"/>
<feBlend mode="normal" in="SourceGraphic" in2="effect1_dropShadow" result="shape"/>
</filter>
<filter id="filter8_d" x="576.374" y="126.746" width="150.633" height="31.1488" filterUnits="userSpaceOnUse" color-interpolation-filters="sRGB">
<feFlood flood-opacity="0" result="BackgroundImageFix"/>
<feColorMatrix in="SourceAlpha" type="matrix" values="0 0 0 0 0 0 0 0 0 0 0 0 0 0 0 0 0 0 127 0" result="hardAlpha"/>
<feOffset dy="4.05479"/>
<feGaussianBlur stdDeviation="5.40639"/>
<feColorMatrix type="matrix" values="0 0 0 0 1 0 0 0 0 0.223529 0 0 0 0 0.317647 0 0 0 0.15 0"/>
<feBlend mode="normal" in2="BackgroundImageFix" result="effect1_dropShadow"/>
<feBlend mode="normal" in="SourceGraphic" in2="effect1_dropShadow" result="shape"/>
</filter>
<filter id="filter9_d" x="576.374" y="157.72" width="222.942" height="31.1489" filterUnits="userSpaceOnUse" color-interpolation-filters="sRGB">
<feFlood flood-opacity="0" result="BackgroundImageFix"/>
<feColorMatrix in="SourceAlpha" type="matrix" values="0 0 0 0 0 0 0 0 0 0 0 0 0 0 0 0 0 0 127 0" result="hardAlpha"/>
<feOffset dy="2.70319"/>
<feGaussianBlur stdDeviation="5.40639"/>
<feColorMatrix type="matrix" values="0 0 0 0 0.890196 0 0 0 0 0.795294 0 0 0 0 0.458824 0 0 0 0.31 0"/>
<feBlend mode="normal" in2="BackgroundImageFix" result="effect1_dropShadow"/>
<feBlend mode="normal" in="SourceGraphic" in2="effect1_dropShadow" result="shape"/>
</filter>
<filter id="filter10_d" x="576.374" y="191.394" width="72.0847" height="31.1489" filterUnits="userSpaceOnUse" color-interpolation-filters="sRGB">
<feFlood flood-opacity="0" result="BackgroundImageFix"/>
<feColorMatrix in="SourceAlpha" type="matrix" values="0 0 0 0 0 0 0 0 0 0 0 0 0 0 0 0 0 0 127 0" result="hardAlpha"/>
<feOffset dy="4.05479"/>
<feGaussianBlur stdDeviation="5.40639"/>
<feColorMatrix type="matrix" values="0 0 0 0 1 0 0 0 0 0.223529 0 0 0 0 0.317647 0 0 0 0.15 0"/>
<feBlend mode="normal" in2="BackgroundImageFix" result="effect1_dropShadow"/>
<feBlend mode="normal" in="SourceGraphic" in2="effect1_dropShadow" result="shape"/>
</filter>
<filter id="filter11_d" x="576.374" y="222.368" width="181.534" height="31.1489" filterUnits="userSpaceOnUse" color-interpolation-filters="sRGB">
<feFlood flood-opacity="0" result="BackgroundImageFix"/>
<feColorMatrix in="SourceAlpha" type="matrix" values="0 0 0 0 0 0 0 0 0 0 0 0 0 0 0 0 0 0 127 0" result="hardAlpha"/>
<feOffset dy="2.70319"/>
<feGaussianBlur stdDeviation="5.40639"/>
<feColorMatrix type="matrix" values="0 0 0 0 0.890196 0 0 0 0 0.795294 0 0 0 0 0.458824 0 0 0 0.31 0"/>
<feBlend mode="normal" in2="BackgroundImageFix" result="effect1_dropShadow"/>
<feBlend mode="normal" in="SourceGraphic" in2="effect1_dropShadow" result="shape"/>
</filter>
<filter id="filter12_d" x="576.374" y="256.043" width="205.267" height="31.1503" filterUnits="userSpaceOnUse" color-interpolation-filters="sRGB">
<feFlood flood-opacity="0" result="BackgroundImageFix"/>
<feColorMatrix in="SourceAlpha" type="matrix" values="0 0 0 0 0 0 0 0 0 0 0 0 0 0 0 0 0 0 127 0" result="hardAlpha"/>
<feOffset dy="4.05479"/>
<feGaussianBlur stdDeviation="5.40639"/>
<feColorMatrix type="matrix" values="0 0 0 0 1 0 0 0 0 0.223529 0 0 0 0 0.317647 0 0 0 0.15 0"/>
<feBlend mode="normal" in2="BackgroundImageFix" result="effect1_dropShadow"/>
<feBlend mode="normal" in="SourceGraphic" in2="effect1_dropShadow" result="shape"/>
</filter>
<filter id="filter13_d" x="405.425" y="429.609" width="109.849" height="132.611" filterUnits="userSpaceOnUse" color-interpolation-filters="sRGB">
<feFlood flood-opacity="0" result="BackgroundImageFix"/>
<feColorMatrix in="SourceAlpha" type="matrix" values="0 0 0 0 0 0 0 0 0 0 0 0 0 0 0 0 0 0 127 0" result="hardAlpha"/>
<feOffset dy="5.40639"/>
<feGaussianBlur stdDeviation="5.40639"/>
<feColorMatrix type="matrix" values="0 0 0 0 1 0 0 0 0 0.760784 0 0 0 0 0.14902 0 0 0 0.21 0"/>
<feBlend mode="normal" in2="BackgroundImageFix" result="effect1_dropShadow"/>
<feBlend mode="normal" in="SourceGraphic" in2="effect1_dropShadow" result="shape"/>
</filter>
<filter id="filter14_d" x="347.347" y="429.042" width="140.081" height="82.1632" filterUnits="userSpaceOnUse" color-interpolation-filters="sRGB">
<feFlood flood-opacity="0" result="BackgroundImageFix"/>
<feColorMatrix in="SourceAlpha" type="matrix" values="0 0 0 0 0 0 0 0 0 0 0 0 0 0 0 0 0 0 127 0" result="hardAlpha"/>
<feOffset dy="5.40639"/>
<feGaussianBlur stdDeviation="5.40639"/>
<feColorMatrix type="matrix" values="0 0 0 0 1 0 0 0 0 0.505882 0 0 0 0 0.223529 0 0 0 0.16 0"/>
<feBlend mode="normal" in2="BackgroundImageFix" result="effect1_dropShadow"/>
<feBlend mode="normal" in="SourceGraphic" in2="effect1_dropShadow" result="shape"/>
</filter>
<filter id="filter15_d" x="324.864" y="450.846" width="151.894" height="171.31" filterUnits="userSpaceOnUse" color-interpolation-filters="sRGB">
<feFlood flood-opacity="0" result="BackgroundImageFix"/>
<feColorMatrix in="SourceAlpha" type="matrix" values="0 0 0 0 0 0 0 0 0 0 0 0 0 0 0 0 0 0 127 0" result="hardAlpha"/>
<feOffset dy="8.10958"/>
<feGaussianBlur stdDeviation="10.8128"/>
<feColorMatrix type="matrix" values="0 0 0 0 1 0 0 0 0 0.223529 0 0 0 0 0.317647 0 0 0 0.34 0"/>
<feBlend mode="normal" in2="BackgroundImageFix" result="effect1_dropShadow"/>
<feBlend mode="normal" in="SourceGraphic" in2="effect1_dropShadow" result="shape"/>
</filter>
<filter id="filter16_d" x="527.438" y="471.536" width="37.8447" height="37.8447" filterUnits="userSpaceOnUse" color-interpolation-filters="sRGB">
<feFlood flood-opacity="0" result="BackgroundImageFix"/>
<feColorMatrix in="SourceAlpha" type="matrix" values="0 0 0 0 0 0 0 0 0 0 0 0 0 0 0 0 0 0 127 0" result="hardAlpha"/>
<feOffset dy="5.40639"/>
<feGaussianBlur stdDeviation="5.40639"/>
<feColorMatrix type="matrix" values="0 0 0 0 1 0 0 0 0 0.223529 0 0 0 0 0.317647 0 0 0 0.19 0"/>
<feBlend mode="normal" in2="BackgroundImageFix" result="effect1_dropShadow"/>
<feBlend mode="normal" in="SourceGraphic" in2="effect1_dropShadow" result="shape"/>
</filter>
<filter id="filter17_d" x="532.844" y="505.325" width="27.0319" height="27.0319" filterUnits="userSpaceOnUse" color-interpolation-filters="sRGB">
<feFlood flood-opacity="0" result="BackgroundImageFix"/>
<feColorMatrix in="SourceAlpha" type="matrix" values="0 0 0 0 0 0 0 0 0 0 0 0 0 0 0 0 0 0 127 0" result="hardAlpha"/>
<feOffset dy="5.40639"/>
<feGaussianBlur stdDeviation="2.70319"/>
<feColorMatrix type="matrix" values="0 0 0 0 1 0 0 0 0 0.505882 0 0 0 0 0.223529 0 0 0 0.13 0"/>
<feBlend mode="normal" in2="BackgroundImageFix" result="effect1_dropShadow"/>
<feBlend mode="normal" in="SourceGraphic" in2="effect1_dropShadow" result="shape"/>
</filter>
<filter id="filter18_d" x="528.789" y="532.357" width="35.1415" height="35.1415" filterUnits="userSpaceOnUse" color-interpolation-filters="sRGB">
<feFlood flood-opacity="0" result="BackgroundImageFix"/>
<feColorMatrix in="SourceAlpha" type="matrix" values="0 0 0 0 0 0 0 0 0 0 0 0 0 0 0 0 0 0 127 0" result="hardAlpha"/>
<feOffset dy="8.10958"/>
<feGaussianBlur stdDeviation="4.73059"/>
<feColorMatrix type="matrix" values="0 0 0 0 1 0 0 0 0 0.760784 0 0 0 0 0.14902 0 0 0 0.44 0"/>
<feBlend mode="normal" in2="BackgroundImageFix" result="effect1_dropShadow"/>
<feBlend mode="normal" in="SourceGraphic" in2="effect1_dropShadow" result="shape"/>
</filter>
<filter id="filter19_dd" x="153.664" y="-5.9247e-05" width="386.836" height="348.09" filterUnits="userSpaceOnUse" color-interpolation-filters="sRGB">
<feFlood flood-opacity="0" result="BackgroundImageFix"/>
<feColorMatrix in="SourceAlpha" type="matrix" values="0 0 0 0 0 0 0 0 0 0 0 0 0 0 0 0 0 0 127 0" result="hardAlpha"/>
<feOffset dy="8.10958"/>
<feGaussianBlur stdDeviation="12.1644"/>
<feColorMatrix type="matrix" values="0 0 0 0 0.0987208 0 0 0 0 0.0910417 0 0 0 0 0.475 0 0 0 0.02 0"/>
<feBlend mode="normal" in2="BackgroundImageFix" result="effect1_dropShadow"/>
<feColorMatrix in="SourceAlpha" type="matrix" values="0 0 0 0 0 0 0 0 0 0 0 0 0 0 0 0 0 0 127 0" result="hardAlpha"/>
<feOffset dy="-1.3516"/>
<feGaussianBlur stdDeviation="10.137"/>
<feColorMatrix type="matrix" values="0 0 0 0 0.078875 0 0 0 0 0.0770833 0 0 0 0 0.166667 0 0 0 0.04 0"/>
<feBlend mode="normal" in2="effect1_dropShadow" result="effect2_dropShadow"/>
<feBlend mode="normal" in="SourceGraphic" in2="effect2_dropShadow" result="shape"/>
</filter>
<filter id="filter20_d" x="411.959" y="150.055" width="45.9543" height="156.918" filterUnits="userSpaceOnUse" color-interpolation-filters="sRGB">
<feFlood flood-opacity="0" result="BackgroundImageFix"/>
<feColorMatrix in="SourceAlpha" type="matrix" values="0 0 0 0 0 0 0 0 0 0 0 0 0 0 0 0 0 0 127 0" result="hardAlpha"/>
<feOffset dy="5.40639"/>
<feGaussianBlur stdDeviation="7.43378"/>
<feColorMatrix type="matrix" values="0 0 0 0 1 0 0 0 0 0.760784 0 0 0 0 0.14902 0 0 0 0.22 0"/>
<feBlend mode="normal" in2="BackgroundImageFix" result="effect1_dropShadow"/>
<feBlend mode="normal" in="SourceGraphic" in2="effect1_dropShadow" result="shape"/>
</filter>
<filter id="filter21_d" x="341.676" y="226.281" width="45.9543" height="80.6714" filterUnits="userSpaceOnUse" color-interpolation-filters="sRGB">
<feFlood flood-opacity="0" result="BackgroundImageFix"/>
<feColorMatrix in="SourceAlpha" type="matrix" values="0 0 0 0 0 0 0 0 0 0 0 0 0 0 0 0 0 0 127 0" result="hardAlpha"/>
<feOffset dy="5.40639"/>
<feGaussianBlur stdDeviation="7.43378"/>
<feColorMatrix type="matrix" values="0 0 0 0 1 0 0 0 0 0.760784 0 0 0 0 0.14902 0 0 0 0.22 0"/>
<feBlend mode="normal" in2="BackgroundImageFix" result="effect1_dropShadow"/>
<feBlend mode="normal" in="SourceGraphic" in2="effect1_dropShadow" result="shape"/>
</filter>
<filter id="filter22_d" x="271.393" y="126.405" width="45.9547" height="180.548" filterUnits="userSpaceOnUse" color-interpolation-filters="sRGB">
<feFlood flood-opacity="0" result="BackgroundImageFix"/>
<feColorMatrix in="SourceAlpha" type="matrix" values="0 0 0 0 0 0 0 0 0 0 0 0 0 0 0 0 0 0 127 0" result="hardAlpha"/>
<feOffset dy="5.40639"/>
<feGaussianBlur stdDeviation="7.43378"/>
<feColorMatrix type="matrix" values="0 0 0 0 1 0 0 0 0 0.760784 0 0 0 0 0.14902 0 0 0 0.22 0"/>
<feBlend mode="normal" in2="BackgroundImageFix" result="effect1_dropShadow"/>
<feBlend mode="normal" in="SourceGraphic" in2="effect1_dropShadow" result="shape"/>
</filter>
<filter id="filter23_d" x="181.532" y="31.4432" width="33.4803" height="33.4804" filterUnits="userSpaceOnUse" color-interpolation-filters="sRGB">
<feFlood flood-opacity="0" result="BackgroundImageFix"/>
<feColorMatrix in="SourceAlpha" type="matrix" values="0 0 0 0 0 0 0 0 0 0 0 0 0 0 0 0 0 0 127 0" result="hardAlpha"/>
<feOffset dy="2.70319"/>
<feGaussianBlur stdDeviation="5.40639"/>
<feColorMatrix type="matrix" values="0 0 0 0 1 0 0 0 0 0.223529 0 0 0 0 0.317647 0 0 0 0.14 0"/>
<feBlend mode="normal" in2="BackgroundImageFix" result="effect1_dropShadow"/>
<feBlend mode="normal" in="SourceGraphic" in2="effect1_dropShadow" result="shape"/>
</filter>
<filter id="filter24_d" x="200.145" y="32.7948" width="30.7772" height="30.7772" filterUnits="userSpaceOnUse" color-interpolation-filters="sRGB">
<feFlood flood-opacity="0" result="BackgroundImageFix"/>
<feColorMatrix in="SourceAlpha" type="matrix" values="0 0 0 0 0 0 0 0 0 0 0 0 0 0 0 0 0 0 127 0" result="hardAlpha"/>
<feOffset dy="2.70319"/>
<feGaussianBlur stdDeviation="4.73059"/>
<feColorMatrix type="matrix" values="0 0 0 0 1 0 0 0 0 0.760784 0 0 0 0 0.14902 0 0 0 0.14 0"/>
<feBlend mode="normal" in2="BackgroundImageFix" result="effect1_dropShadow"/>
<feBlend mode="normal" in="SourceGraphic" in2="effect1_dropShadow" result="shape"/>
</filter>
<filter id="filter25_d" x="218.758" y="34.1463" width="28.074" height="28.074" filterUnits="userSpaceOnUse" color-interpolation-filters="sRGB">
<feFlood flood-opacity="0" result="BackgroundImageFix"/>
<feColorMatrix in="SourceAlpha" type="matrix" values="0 0 0 0 0 0 0 0 0 0 0 0 0 0 0 0 0 0 127 0" result="hardAlpha"/>
<feOffset dy="2.70319"/>
<feGaussianBlur stdDeviation="4.05479"/>
<feColorMatrix type="matrix" values="0 0 0 0 0.603922 0 0 0 0 0.909804 0 0 0 0 0.52549 0 0 0 0.29 0"/>
<feBlend mode="normal" in2="BackgroundImageFix" result="effect1_dropShadow"/>
<feBlend mode="normal" in="SourceGraphic" in2="effect1_dropShadow" result="shape"/>
</filter>
<clipPath id="clip0">
<rect width="400.948" height="811.33" fill="white" transform="translate(0 155.67)"/>
</clipPath>
</defs>
</svg>
