<svg width="189" height="35" viewBox="0 0 189 35" fill="none" xmlns="http://www.w3.org/2000/svg">
<path d="M67.8839 17.2283C66.5425 19.4044 64.6346 20.6563 62.1605 20.6563C58.5835 20.6563 55.9603 17.765 55.9603 14.0389C55.9603 10.3127 58.4643 7.45108 62.2201 7.45108C64.6048 7.45108 66.7511 8.79247 67.8242 10.8195L71.282 8.07707C69.5233 4.94714 66.3337 3.06918 62.2798 3.06918C55.7814 3.06918 51.2207 7.89821 51.2207 14.0389C51.2207 20.1794 55.8709 25.0383 62.2201 25.0383C66.2145 25.0383 69.553 22.9219 71.3715 19.9111L67.8839 17.2283Z" fill="#1F2559"/>
<path d="M80.8405 9.03085C76.0711 9.03085 72.6431 12.4887 72.6431 17.0197C72.6431 21.5207 76.0711 25.0382 80.8405 25.0382C85.6099 25.0382 89.0379 21.5207 89.0379 17.0197C89.0379 12.4887 85.6099 9.03085 80.8405 9.03085ZM80.8405 13.055C82.8974 13.055 84.4474 14.6349 84.4474 17.0197C84.4474 19.4043 82.8974 21.0139 80.8405 21.0139C78.7837 21.0139 77.2337 19.4043 77.2337 17.0197C77.2337 14.6349 78.7837 13.055 80.8405 13.055Z" fill="#1F2559"/>
<path d="M91.9993 9.38855V24.6805H96.5302V16.7215C96.5302 14.7243 97.5736 13.0253 99.4811 13.0253C101.151 13.0253 102.223 14.0685 102.223 16.0657V24.6805H106.755V16.7215C106.755 14.7243 107.799 13.0253 109.706 13.0253C111.375 13.0253 112.419 14.0685 112.419 16.0657V24.6805H116.949V15.3801C116.949 11.4156 114.715 9.03085 111.046 9.03085C108.454 9.03085 106.992 10.1636 105.89 11.7136C104.847 10.0145 103.178 9.03085 100.823 9.03085C98.8253 9.03085 97.3351 9.80589 96.3514 11.3559V9.38855H91.9993Z" fill="#1F2559"/>
<path d="M128.837 13.0253C130.775 13.0253 132.383 14.6051 132.383 17.0792C132.383 19.464 130.775 21.0438 128.837 21.0438C126.81 21.0438 125.23 19.4938 125.23 17.0792C125.23 14.5752 126.81 13.0253 128.837 13.0253ZM125.021 9.38855H120.819V30.6423H125.349V23.0111C126.303 24.442 128.122 25.0382 129.761 25.0382C133.935 25.0382 136.945 21.5804 136.945 17.0197C136.945 12.3098 133.696 9.03085 129.791 9.03085C128.3 9.03085 126.213 9.65684 125.021 11.505V9.38855Z" fill="#1F2559"/>
<path d="M147.843 15.1715L143.671 15.9763C140.451 16.6619 138.692 18.2119 138.692 20.4775C138.692 23.1303 140.779 25.0382 143.76 25.0382C145.787 25.0382 147.278 24.1439 147.993 22.8025V24.6805H152.195V15.0521C152.195 11.3261 149.662 9.03085 145.4 9.03085C142.538 9.03085 140.243 10.2232 138.842 11.9223L141.197 14.784C142.121 13.7406 143.431 12.9357 145.131 12.9357C146.681 12.9357 147.843 13.5321 147.843 15.0521V15.1715ZM144.774 21.6698C143.7 21.6698 143.015 21.0736 143.015 20.2092C143.015 19.3745 143.611 18.8379 144.833 18.6294L147.873 18.033V18.4803C147.873 20.2986 146.651 21.6698 144.774 21.6698Z" fill="#1F2559"/>
<path d="M156.013 9.38855V24.6805H160.543V16.7215C160.543 14.7243 161.586 13.0253 163.555 13.0253C165.224 13.0253 166.297 14.0685 166.297 16.0657V24.6805H170.828V15.3801C170.828 11.4156 168.561 9.03085 164.895 9.03085C162.839 9.03085 161.349 9.80589 160.364 11.3559V9.38855H156.013Z" fill="#1F2559"/>
<path d="M178.225 24.114L178.047 24.6208C177.391 26.7969 176.288 27.1845 175.096 27.1845C174.589 27.1845 173.814 27.1248 173.009 26.6777V30.4336C173.695 30.7615 174.678 31 175.751 31C178.643 31 180.491 29.6287 182.012 25.9324L188.688 9.38855H184.068L180.491 19.4043L176.944 9.38855H172.205L178.225 24.114Z" fill="#1F2559"/>
<g filter="url(#filter0_d_350_338)">
<path d="M23.3269 1.58954H19.968C19.5031 1.58954 19.1262 2.05826 19.1262 2.63648V26.4905C19.1262 27.0687 19.5031 27.5374 19.968 27.5374H23.3269C23.7918 27.5374 24.1687 27.0687 24.1687 26.4905V2.63648C24.1687 2.05826 23.7918 1.58954 23.3269 1.58954Z" fill="#F4263E"/>
</g>
<path d="M23.8309 1H19.4636C18.8592 1 18.3691 1.49002 18.3691 2.0945V27.0323C18.3691 27.6369 18.8592 28.1268 19.4636 28.1268H23.8309C24.4354 28.1268 24.9254 27.6369 24.9254 27.0323V2.0945C24.9254 1.49002 24.4354 1 23.8309 1Z" fill="#F4263E"/>
<g filter="url(#filter1_d_350_338)">
<path d="M33.7224 27.5374C36.4749 27.5374 38.7063 25.3059 38.7063 22.5535C38.7063 19.801 36.4749 17.5696 33.7224 17.5696C30.9699 17.5696 28.7385 19.801 28.7385 22.5535C28.7385 25.3059 30.9699 27.5374 33.7224 27.5374Z" fill="#1B76FF"/>
</g>
<path d="M33.7222 28.1265C36.8 28.1265 39.2951 25.6313 39.2951 22.5534C39.2951 19.4755 36.8 16.9805 33.7222 16.9805C30.6442 16.9805 28.1492 19.4755 28.1492 22.5534C28.1492 25.6313 30.6442 28.1265 33.7222 28.1265Z" fill="#1B76FF"/>
<g filter="url(#filter2_d_350_338)">
<path d="M33.7224 10.8189C36.0672 10.8189 37.9682 8.91797 37.9682 6.57307C37.9682 4.22816 36.0672 2.32724 33.7224 2.32724C31.3775 2.32724 29.4766 4.22816 29.4766 6.57307C29.4766 8.91797 31.3775 10.8189 33.7224 10.8189Z" fill="#FFCD1D"/>
</g>
<path d="M33.7222 12.146C36.8 12.146 39.2951 9.65089 39.2951 6.57301C39.2951 3.49512 36.8 1 33.7222 1C30.6442 1 28.1492 3.49512 28.1492 6.57301C28.1492 9.65089 30.6442 12.146 33.7222 12.146Z" fill="#FFCD1D"/>
<g filter="url(#filter3_d_350_338)">
<path d="M9.57325 27.5374C12.3257 27.5374 14.5571 25.3059 14.5571 22.5535C14.5571 19.801 12.3257 17.5696 9.57325 17.5696C6.82071 17.5696 4.58936 19.801 4.58936 22.5535C4.58936 25.3059 6.82071 27.5374 9.57325 27.5374Z" fill="#782CE4"/>
</g>
<path d="M9.573 28.1265C12.6508 28.1265 15.146 25.6313 15.146 22.5534C15.146 19.4755 12.6508 16.9805 9.573 16.9805C6.49512 16.9805 4 19.4755 4 22.5534C4 25.6313 6.49512 28.1265 9.573 28.1265Z" fill="#782CE4"/>
<defs>
<filter id="filter0_d_350_338" x="15.1262" y="0.589539" width="13.0425" height="33.9479" filterUnits="userSpaceOnUse" color-interpolation-filters="sRGB">
<feFlood flood-opacity="0" result="BackgroundImageFix"/>
<feColorMatrix in="SourceAlpha" type="matrix" values="0 0 0 0 0 0 0 0 0 0 0 0 0 0 0 0 0 0 127 0" result="hardAlpha"/>
<feOffset dy="3"/>
<feGaussianBlur stdDeviation="2"/>
<feColorMatrix type="matrix" values="0 0 0 0 0.956863 0 0 0 0 0.14902 0 0 0 0 0.243137 0 0 0 0.15 0"/>
<feBlend mode="normal" in2="BackgroundImageFix" result="effect1_dropShadow_350_338"/>
<feBlend mode="normal" in="SourceGraphic" in2="effect1_dropShadow_350_338" result="shape"/>
</filter>
<filter id="filter1_d_350_338" x="24.7385" y="16.5696" width="17.9678" height="17.9677" filterUnits="userSpaceOnUse" color-interpolation-filters="sRGB">
<feFlood flood-opacity="0" result="BackgroundImageFix"/>
<feColorMatrix in="SourceAlpha" type="matrix" values="0 0 0 0 0 0 0 0 0 0 0 0 0 0 0 0 0 0 127 0" result="hardAlpha"/>
<feOffset dy="3"/>
<feGaussianBlur stdDeviation="2"/>
<feColorMatrix type="matrix" values="0 0 0 0 0.104167 0 0 0 0 0.4625 0 0 0 0 1 0 0 0 0.15 0"/>
<feBlend mode="normal" in2="BackgroundImageFix" result="effect1_dropShadow_350_338"/>
<feBlend mode="normal" in="SourceGraphic" in2="effect1_dropShadow_350_338" result="shape"/>
</filter>
<filter id="filter2_d_350_338" x="25.4766" y="1.32724" width="16.4917" height="16.4916" filterUnits="userSpaceOnUse" color-interpolation-filters="sRGB">
<feFlood flood-opacity="0" result="BackgroundImageFix"/>
<feColorMatrix in="SourceAlpha" type="matrix" values="0 0 0 0 0 0 0 0 0 0 0 0 0 0 0 0 0 0 127 0" result="hardAlpha"/>
<feOffset dy="3"/>
<feGaussianBlur stdDeviation="2"/>
<feColorMatrix type="matrix" values="0 0 0 0 1 0 0 0 0 0.80475 0 0 0 0 0.1125 0 0 0 0.3 0"/>
<feBlend mode="normal" in2="BackgroundImageFix" result="effect1_dropShadow_350_338"/>
<feBlend mode="normal" in="SourceGraphic" in2="effect1_dropShadow_350_338" result="shape"/>
</filter>
<filter id="filter3_d_350_338" x="0.589355" y="16.5696" width="17.9678" height="17.9677" filterUnits="userSpaceOnUse" color-interpolation-filters="sRGB">
<feFlood flood-opacity="0" result="BackgroundImageFix"/>
<feColorMatrix in="SourceAlpha" type="matrix" values="0 0 0 0 0 0 0 0 0 0 0 0 0 0 0 0 0 0 127 0" result="hardAlpha"/>
<feOffset dy="3"/>
<feGaussianBlur stdDeviation="2"/>
<feColorMatrix type="matrix" values="0 0 0 0 0.470588 0 0 0 0 0.172549 0 0 0 0 0.894118 0 0 0 0.15 0"/>
<feBlend mode="normal" in2="BackgroundImageFix" result="effect1_dropShadow_350_338"/>
<feBlend mode="normal" in="SourceGraphic" in2="effect1_dropShadow_350_338" result="shape"/>
</filter>
</defs>
</svg>
