<svg width="119" height="30" viewBox="0 0 119 30" fill="none" xmlns="http://www.w3.org/2000/svg">
<path d="M38.3616 11.7448C38.3616 9.59077 36.2951 7.33173 32.7034 7.33173C28.6753 7.33173 24.2529 10.2975 23.5757 16.217C22.8837 22.1944 26.5873 24.8506 30.3204 24.8506C34.0537 24.8506 36.0084 23.3899 38.0076 21.4419C36.2884 19.2744 34.0684 20.276 33.643 20.4968C32.9388 20.8892 32.1413 21.0832 31.3356 21.0582C29.8951 21.0582 28.4249 20.4092 28.4249 17.7087C37.6549 16.7933 38.3603 13.8853 38.3603 11.7448H38.3616ZM33.7871 12.0988C33.7278 12.7625 33.464 13.8987 28.7898 14.5356C29.7725 11.0218 31.6573 10.758 32.5229 10.758C32.6983 10.7499 32.8734 10.7798 33.0363 10.8455C33.1992 10.9111 33.3461 11.0111 33.4669 11.1386C33.5877 11.266 33.6797 11.418 33.7366 11.5841C33.7934 11.7503 33.8138 11.9268 33.7965 12.1015L33.7871 12.0988ZM18.1543 12.6751L16.0084 19.4494L14.4939 7.68714C11.1147 7.68714 9.29731 10.1077 8.3495 12.6602L5.73237 19.4642L5.36484 12.7329C5.1656 9.60421 2.30884 7.7006 0 7.7006L2.79214 24.7173C6.3328 24.7039 8.24449 22.2967 9.24479 19.7442L11.4581 13.9593C11.4782 14.1949 12.9873 24.7186 12.9873 24.7186C16.5441 24.7186 18.4558 22.461 19.4804 19.996L24.4615 7.70195C20.9545 7.70195 19.1061 10.1077 18.1517 12.6751H18.1543ZM51.415 7.28999C49.2246 7.28999 47.5512 8.48546 46.1376 10.241V10.2275L47.4005 0C44.4898 0 42.1231 2.53904 41.6681 6.31665L39.4791 24.5854C41.1552 24.5854 42.9336 24.098 43.8894 22.8581C44.743 23.9647 46.0205 24.8506 47.9174 24.8506C52.8259 24.8506 56.1928 19.125 56.1928 13.752C56.1632 8.85165 53.7965 7.30346 51.4298 7.30346L51.415 7.28999ZM50.9573 16.0716C50.4457 19.0671 48.7817 21.1039 47.181 21.1039C45.5803 21.1039 44.8735 20.381 44.8735 20.381C45.1832 17.7558 45.3743 16.1457 45.9613 14.7577C46.5482 13.3697 47.9457 11.1565 49.401 11.1565C50.828 11.1565 51.4742 13.06 50.9586 16.0703L50.9573 16.0716ZM68.4344 7.68848H65.0095L65.023 7.51078C65.2585 5.26792 65.7876 4.08724 67.5324 3.89473C68.7238 3.77626 69.2529 3.15698 69.3848 2.47846L69.8116 0.102316C62.9457 0.0578894 60.7728 3.03716 60.2195 7.58483L60.2061 7.68848H60.132C59.0146 7.68848 57.7815 8.95799 57.5741 10.5668L57.5001 11.1565H59.7941L57.8689 27.123L57.2793 29.9866C57.3534 29.9866 57.4408 30 57.5135 30C60.7311 29.8815 62.7909 27.3291 63.2459 23.6242L64.7483 11.1538H65.8254C66.8835 11.1538 68.1193 10.0902 68.3347 8.31985L68.4344 7.68848ZM86.2481 7.39231C82.2941 7.39231 78.5609 10.3137 77.4166 14.9045C76.2723 19.4952 78.0063 24.9246 83.8248 24.9246C89.643 24.9246 92.9755 19.2704 92.9755 14.5638C92.9808 9.88556 89.8221 7.39096 86.2494 7.39096L86.2481 7.39231ZM87.8498 15.9222C87.6452 18.0035 86.7328 21.1618 84.2341 21.1618C81.7355 21.1618 82.0734 17.4731 82.3156 15.7162C82.5808 13.8423 83.6242 11.1712 85.8724 11.1712C87.8946 11.1712 88.0843 13.577 87.8516 15.9235L87.8498 15.9222ZM112.513 12.6602L110.368 19.4346C110.31 18.9028 108.855 7.67233 108.855 7.67233C105.475 7.67233 103.666 10.0929 102.718 12.6454L100.101 19.4494C100.088 18.9621 99.7337 12.7181 99.7337 12.7181C99.5212 9.58937 96.6672 7.6858 94.3489 7.6858L97.1256 24.7025C100.666 24.689 102.578 22.282 103.578 19.7294L105.784 13.9446C105.797 14.1802 107.313 24.7039 107.313 24.7039C110.87 24.7039 112.773 22.4462 113.806 19.9812L118.791 7.68714C115.293 7.68714 113.441 10.0929 112.5 12.6602H112.513ZM71.6681 0.0996255L68.7871 23.4303L68.1975 26.3086C68.2701 26.3086 68.359 26.3221 68.4317 26.3221C71.5308 26.2777 73.736 23.5488 74.1492 20.1091L75.8092 6.72322C76.3127 2.63463 73.8881 0.0969314 71.6681 0.0969314V0.0996255Z" fill="#4353FF"/>
</svg>
