<svg width="57" height="11" viewBox="0 0 57 11" fill="none" xmlns="http://www.w3.org/2000/svg">
<path d="M51.3835 7.89481C47.3784 8.39679 43.6322 8.85885 39.897 9.36083C39.6271 9.39505 39.4012 9.76013 38.7952 10.2735C40.5856 10.5017 41.9464 10.7812 43.3182 10.844C46.9377 10.9466 50.5627 10.9466 54.1822 10.9866C54.6233 11.0143 55.066 10.999 55.5044 10.9409C56.9643 10.6614 57.405 9.68598 56.6062 8.37398C56.2395 7.75089 55.8011 7.17624 55.3005 6.66267C53.4238 4.7308 51.5194 2.82935 49.5876 0.95833C49.1391 0.591768 48.6576 0.270839 48.1497 0C48.056 2.89781 50.8436 3.69641 51.4552 6.00667C50.9538 5.904 50.5351 5.85266 50.1275 5.73857C35.2528 1.51165 20.4443 1.968 5.65224 6.07513C4.12481 6.5285 2.62228 7.0674 1.15128 7.68946C0.374489 8.00319 -0.292114 8.57933 0.132088 9.57759C0.556293 10.5759 1.31105 10.5245 2.14843 10.148C12.0043 5.58455 22.4771 5.06546 32.9996 5.21377C38.4893 5.26222 43.9574 5.9317 49.3066 7.21029C49.9512 7.37001 50.5792 7.62671 51.3835 7.89481Z" fill="#FF3951"/>
</svg>
