<svg width="17" height="23" viewBox="0 0 17 23" fill="none" xmlns="http://www.w3.org/2000/svg">
<path d="M15.9649 12.0664C15.4306 11.3754 14.6243 10.9008 13.546 10.6429C14.9191 9.94249 15.5225 8.75374 15.3569 7.07646C15.3015 6.46824 15.1334 5.94111 14.8522 5.4943C14.5708 5.0474 14.1911 4.68812 13.7116 4.41633C13.2325 4.1442 12.7114 3.93704 12.1496 3.79422C11.5876 3.6514 10.9424 3.54769 10.2144 3.48326V0H8.08597V3.38648C7.7174 3.38648 7.15532 3.39568 6.39978 3.41412V0H4.27104V3.48326C3.96686 3.4925 3.52 3.4972 2.93028 3.4972L0 3.48326V5.75017H1.53418C2.23452 5.75017 2.64459 6.06355 2.76436 6.69007V10.6572C2.85664 10.6572 2.93028 10.6619 2.98561 10.6711H2.76436V16.2275C2.69073 16.6973 2.42353 16.9325 1.96273 16.9325H0.428653L9.67738e-05 19.462H2.7646C2.93972 19.462 3.19297 19.4644 3.52484 19.4685C3.85652 19.4732 4.10522 19.4755 4.27114 19.4755V23.0001H6.40022V19.5169C6.78714 19.5264 7.34922 19.5309 8.08641 19.5309V23.0001H10.2149V19.4755C10.9707 19.4387 11.641 19.37 12.2259 19.2682C12.8111 19.1665 13.371 19.0078 13.9054 18.7911C14.4397 18.5747 14.8865 18.305 15.2458 17.9825C15.6054 17.6602 15.9023 17.25 16.1377 16.7523C16.3723 16.2546 16.5222 15.6787 16.5865 15.0243C16.7068 13.7437 16.4994 12.7576 15.9649 12.0664ZM6.44117 5.9018C6.50571 5.9018 6.6877 5.89948 6.98718 5.89483C7.28681 5.89008 7.53551 5.88553 7.73362 5.88089C7.93178 5.87634 8.19902 5.88786 8.53549 5.9155C8.87182 5.94315 9.15514 5.98009 9.38544 6.02608C9.61574 6.07207 9.86938 6.14813 10.1456 6.25411C10.4223 6.35999 10.6433 6.48906 10.8089 6.64107C10.975 6.79309 11.1154 6.9867 11.2304 7.2217C11.3458 7.45665 11.4034 7.72617 11.4034 8.0302C11.4034 8.28825 11.362 8.5233 11.2791 8.73535C11.1964 8.94725 11.0717 9.12469 10.9061 9.26751C10.7403 9.41038 10.5695 9.5349 10.3944 9.64078C10.2195 9.74666 9.99584 9.83196 9.72409 9.8964C9.4524 9.96093 9.21512 10.0116 9.01251 10.0484C8.80976 10.0853 8.55641 10.1107 8.25227 10.1245C7.94809 10.1382 7.71764 10.1476 7.56107 10.1522C7.40436 10.1567 7.19018 10.1567 6.91824 10.1522C6.64625 10.1476 6.48751 10.1452 6.44132 10.1452V5.90175H6.44117V5.9018ZM12.2537 15.3147C12.1659 15.5267 12.0532 15.7112 11.9151 15.8679C11.7767 16.0243 11.5946 16.1627 11.369 16.2823C11.1434 16.4023 10.9243 16.4988 10.7126 16.5726C10.5005 16.6466 10.2447 16.7107 9.94549 16.7662C9.64561 16.8216 9.38316 16.8605 9.15717 16.8837C8.93151 16.9068 8.6621 16.9251 8.34867 16.9391C8.03548 16.9526 7.79114 16.9596 7.61612 16.9596C7.44101 16.9596 7.21981 16.9571 6.95257 16.9526C6.68518 16.9483 6.51486 16.946 6.44108 16.946V12.2738C6.51471 12.2738 6.73359 12.2693 7.09766 12.2599C7.46178 12.2507 7.75879 12.2463 7.98919 12.2463C8.21955 12.2463 8.53757 12.2599 8.94318 12.2878C9.3484 12.3152 9.68938 12.3565 9.96606 12.4118C10.2424 12.4672 10.544 12.5523 10.8713 12.6676C11.1984 12.7828 11.4634 12.9233 11.6662 13.0891C11.869 13.2553 12.0394 13.4669 12.1775 13.725C12.3161 13.9829 12.3851 14.2779 12.3851 14.6097C12.3851 14.868 12.3414 15.1026 12.2537 15.3147Z" fill="white"/>
</svg>
