<svg xmlns="http://www.w3.org/2000/svg" width="31" height="31" viewBox="0 0 31 31" fill="none"><path d="M24.3126 2.02252e-06C22.542 -0.0013763 20.8432 0.701781 19.5891 1.95512C18.335 3.20847 17.6281 4.90957 17.6235 6.68504V14.0971C16.9346 14.1438 16.2302 14.1731 15.5 14.1731C14.7698 14.1731 14.0688 14.2025 13.3765 14.2439V6.68504C13.3483 4.92497 12.6313 3.24654 11.3801 2.01185C10.1288 0.777162 8.44372 0.0851751 6.68825 0.0851751C4.93278 0.0851751 3.24766 0.777162 1.99643 2.01185C0.745207 3.24654 0.028167 4.92497 0 6.68504V24.4001C0.028167 26.1602 0.745207 27.8386 1.99643 29.0733C3.24766 30.308 4.93278 31 6.68825 31C8.44372 31 10.1288 30.308 11.3801 29.0733C12.6313 27.8386 13.3483 26.1602 13.3765 24.4001V16.988C14.0654 16.9414 14.7698 16.9121 15.5 16.9121C16.2302 16.9121 16.9312 16.8827 17.6235 16.8413V24.4001C17.6517 26.1602 18.3687 27.8386 19.6199 29.0733C20.8712 30.308 22.5563 31 24.3118 31C26.0672 31 27.7523 30.308 29.0036 29.0733C30.2548 27.8386 30.9718 26.1602 31 24.4001V6.68504C30.9954 4.90987 30.2888 3.20903 29.035 1.95573C27.7813 0.70244 26.0829 -0.000918672 24.3126 2.02252e-06ZM6.68739 2.73895C7.73234 2.73849 8.7348 3.1537 9.47482 3.89349C10.2148 4.63328 10.632 5.63722 10.6347 6.68504V14.534C8.6779 14.8184 6.767 15.3601 4.95139 16.1453C4.16474 16.4915 3.42421 16.9347 2.74694 17.4647V6.68504C2.74968 5.63842 3.16587 4.63552 3.90441 3.89593C4.64294 3.15634 5.64363 2.74032 6.68739 2.73895ZM10.6347 24.4001C10.6347 25.4499 10.2188 26.4567 9.47858 27.199C8.73831 27.9413 7.73429 28.3583 6.68739 28.3583C5.64049 28.3583 4.63647 27.9413 3.8962 27.199C3.15593 26.4567 2.74006 25.4499 2.74006 24.4001V22.6231C2.74006 21.0533 3.98006 19.5664 6.05878 18.6407C7.52348 18.0071 9.06033 17.5564 10.6347 17.2989V24.4001ZM24.3126 28.3462C23.2677 28.3467 22.2652 27.9315 21.5252 27.1917C20.7852 26.4519 20.368 25.448 20.3653 24.4001V16.5511C22.3221 16.2668 24.233 15.725 26.0486 14.9399C26.8353 14.5937 27.5758 14.1505 28.2531 13.6205V24.4001C28.2503 25.4468 27.8341 26.4497 27.0956 27.1892C26.3571 27.9288 25.3564 28.3449 24.3126 28.3462ZM24.9412 12.4341C23.4765 13.0677 21.9397 13.5184 20.3653 13.7759V6.68504C20.3653 5.63527 20.7812 4.62849 21.5214 3.88619C22.2617 3.14388 23.2657 2.72686 24.3126 2.72686C25.3595 2.72686 26.3635 3.14388 27.1038 3.88619C27.8441 4.62849 28.2599 5.63527 28.2599 6.68504V8.46208C28.2599 10.025 27.0199 11.5119 24.9412 12.4341Z" fill="white"></path></svg>