<svg width="28" height="28" viewBox="0 0 28 28" fill="none" xmlns="http://www.w3.org/2000/svg">
<path d="M16.4734 10.5956L14.7356 7.07443C14.5974 6.79443 14.3122 6.61719 14 6.61719C13.6878 6.61719 13.4026 6.79448 13.2644 7.07443L11.5266 10.5956L7.64072 11.1603C7.33174 11.2052 7.07498 11.4216 6.97851 11.7186C6.88199 12.0156 6.96249 12.3415 7.18605 12.5595L9.99792 15.3004L9.33412 19.1705C9.28135 19.4783 9.40784 19.7893 9.66044 19.9729C9.9131 20.1564 10.248 20.1806 10.5243 20.0353L14 18.208L17.4756 20.0352C17.7536 20.1814 18.0884 20.1552 18.3395 19.9727C18.5921 19.7892 18.7187 19.4782 18.6658 19.1704L18.002 15.3002L20.8139 12.5594C21.0375 12.3414 21.118 12.0154 21.0214 11.7185C20.925 11.4215 20.6683 11.2051 20.3592 11.1602L16.4734 10.5956ZM16.5481 14.4265C16.3547 14.615 16.2665 14.8865 16.3121 15.1526L16.7679 17.8096L14.3817 16.5552C14.2622 16.4923 14.1311 16.4609 14 16.4609C13.8689 16.4609 13.7378 16.4923 13.6183 16.5552L11.2322 17.8096L11.6879 15.1526C11.7335 14.8865 11.6453 14.615 11.452 14.4265L9.52154 12.5448L12.1893 12.1572C12.4565 12.1184 12.6875 11.9505 12.8069 11.7084L14 9.29102L15.1931 11.7084C15.3126 11.9505 15.5436 12.1184 15.8107 12.1572L18.4785 12.5448L16.5481 14.4265Z" fill="white"/>
<path d="M14 0C6.2913 0 0 6.2918 0 14C0 21.7087 6.2918 28 14 28C21.7087 28 28 21.7082 28 14C28 6.2913 21.7082 0 14 0ZM14 26.3594C7.18501 26.3594 1.64062 20.815 1.64062 14C1.64062 7.18501 7.18501 1.64062 14 1.64062C20.815 1.64062 26.3594 7.18501 26.3594 14C26.3594 20.815 20.815 26.3594 14 26.3594Z" fill="white"/>
<path d="M14 3.28125C8.11355 3.28125 3.28125 8.11305 3.28125 14C3.28125 19.8865 8.11305 24.7188 14 24.7188C19.8865 24.7188 24.7188 19.8869 24.7188 14C24.7188 8.11355 19.8869 3.28125 14 3.28125ZM14 23.0781C8.99429 23.0781 4.92188 19.0057 4.92188 14C4.92188 8.99429 8.99429 4.92188 14 4.92188C19.0057 4.92188 23.0781 8.99429 23.0781 14C23.0781 19.0057 19.0057 23.0781 14 23.0781Z" fill="white"/>
</svg>
