<svg xmlns="http://www.w3.org/2000/svg" width="42" height="26" viewBox="0 0 42 26" fill="none"><path d="M14.3836 0H30.1906C30.181 0.206841 30.1088 0.406047 29.9833 0.571741C29.4482 1.47965 28.9666 2.42461 28.4408 3.33251C27.697 4.63613 27.0014 5.96358 26.2456 7.26191C25.7666 8.19628 25.2262 9.10154 24.7152 10.02C21.6437 10.02 18.5722 10.02 15.5006 10.02C15.3401 10.02 15.1809 10.028 15.0204 10.0372C14.8866 10.3866 14.6645 10.6924 14.4853 11.0206C14.2512 11.3964 14.0612 11.7975 13.8298 12.1733C13.585 12.6789 13.2465 13.1315 13.0004 13.6358C12.492 14.4894 12.0171 15.3563 11.5195 16.2192C11.0004 17.1015 10.493 17.9962 9.9971 18.9032C9.78725 19.2247 9.59392 19.5564 9.41784 19.8971C8.3784 21.6865 7.37241 23.4917 6.33163 25.2797C6.24335 25.4719 6.12707 25.6503 5.98649 25.8091C4.20726 25.7972 2.42804 25.8091 0.648815 25.8091C0.429676 25.8132 0.211836 25.8434 0 25.8991C0 25.412 0.329089 25.0216 0.551158 24.6127C0.81871 24.0634 1.17589 23.5539 1.44478 23.0033C3.57718 19.2288 5.68683 15.441 7.81253 11.6638C8.29412 10.8432 8.70749 10.0055 9.19176 9.2008C9.79643 8.14202 10.3596 7.05942 10.9897 6.01255C11.1904 5.57448 11.4606 5.17346 11.6813 4.74598C12.4653 3.3656 13.2345 1.97727 14.0157 0.596887C14.1084 0.38131 14.2323 0.180238 14.3836 0Z" fill="white"></path><path d="M32.6999 5.55718C33.7527 3.7374 34.7694 1.89777 35.837 0.0859375H41.5465C41.6297 0.0900996 41.7122 0.102965 41.7927 0.124318C41.6027 0.408865 41.4435 0.710617 41.2763 1.00708C39.8993 3.45197 38.5263 5.8982 37.1573 8.34574C36.5821 9.34232 36.047 10.3614 35.4637 11.3527L35.4062 11.3725L35.3955 11.4969C32.7111 16.2614 30.0355 21.0295 27.3689 25.801C22.1276 25.8063 16.8858 25.8063 11.6436 25.801C11.9419 25.1843 12.295 24.5954 12.6268 23.9958C14.1198 21.2801 15.6515 18.5881 17.123 15.8723C20.3435 15.867 23.5639 15.867 26.7843 15.8723C28.7736 12.4445 30.72 8.99027 32.6946 5.55718H32.6999Z" fill="white"></path></svg>