<svg xmlns="http://www.w3.org/2000/svg" width="59" height="59" viewBox="0 0 59 59" fill="none"><path d="M18.0457 24.7908L29.5047 13.3367L40.9682 24.8001L47.632 18.1318L29.5047 0L11.3773 18.1271L18.0457 24.7908Z" fill="white"></path><path d="M0 29.5007L6.66602 22.8348L13.332 29.5007L6.66602 36.1666L0 29.5007Z" fill="white"></path><path d="M18.0461 34.209L29.505 45.6678L40.9686 34.2043L47.6371 40.8634L47.6324 40.868L29.505 58.9998L11.3776 40.8774L11.3683 40.868L18.0461 34.209Z" fill="white"></path><path d="M45.666 29.5027L52.332 22.8368L58.9981 29.5027L52.332 36.1686L45.666 29.5027Z" fill="white"></path><path d="M36.2663 29.4969L29.5046 22.7307L24.5045 27.7308L23.9266 28.304L22.743 29.4876L22.7337 29.4969L22.743 29.5109L29.5046 36.2678L36.2663 29.5016L36.271 29.4969H36.2663Z" fill="white"></path></svg>