<svg width="26" height="22" viewBox="0 0 26 22" fill="none" xmlns="http://www.w3.org/2000/svg">
<path d="M16.2317 12.9487C16.385 12.6286 16.4781 12.2745 16.4781 11.8966V11.4957C16.4781 10.1424 15.3767 9.04101 14.0234 9.04101H13.7628V8.82888C13.7628 8.33882 13.3662 7.94226 12.8762 7.94226C12.3861 7.94226 11.9895 8.33882 11.9895 8.82888V9.04101H10.0803C9.59028 9.04101 9.19373 9.43757 9.19373 9.92764C9.19373 10.4177 9.59028 10.8143 10.0803 10.8143H10.2016V16.1149H10.0803C9.59028 16.1149 9.19373 16.5115 9.19373 17.0016C9.19373 17.4916 9.59028 17.8882 10.0803 17.8882H11.9895V18.1003C11.9895 18.5904 12.3861 18.9869 12.8762 18.9869C13.3662 18.9869 13.7628 18.5904 13.7628 18.1003V17.8882H14.9507C16.304 17.8882 17.4054 16.7868 17.4054 15.4335V15.0326C17.4054 14.1501 16.9328 13.3814 16.2317 12.9487ZM14.7048 11.4957V11.8966C14.7048 12.2723 14.3992 12.578 14.0234 12.578H11.9748V10.8143H14.0234C14.3992 10.8143 14.7048 11.1199 14.7048 11.4957ZM15.6321 15.4335C15.6321 15.8093 15.3265 16.1149 14.9507 16.1149H11.9748V14.3512H14.9507C15.3265 14.3512 15.6321 14.6569 15.6321 15.0326V15.4335Z" fill="white"/>
<path d="M25.1709 14.5012C25.064 14.4556 24.9467 14.4299 24.823 14.4299C24.82 14.4299 24.8175 14.4316 24.8144 14.4316H21.8359V12.4973H24.8144C24.8175 12.4974 24.82 12.4991 24.823 12.4991C24.9467 12.4991 25.064 12.4733 25.1709 12.4277C25.4892 12.2931 25.7123 11.9782 25.7123 11.6107C25.7123 11.6061 25.7097 11.6024 25.7097 11.5978V8.98547C25.7097 8.4954 25.3131 8.09884 24.823 8.09884C24.333 8.09884 23.9364 8.4954 23.9364 8.98547V10.7241H21.8359V8.75688C21.8359 6.64596 20.1181 4.92813 18.0071 4.92813H17.7993V4.63807C17.7993 2.15744 15.781 0.13916 13.2995 0.13916C10.818 0.13916 8.79977 2.15744 8.79977 4.63807V4.92813H8.59197C6.48104 4.92813 4.76321 6.64596 4.76321 8.75688V10.7241H2.66268V8.98547C2.66268 8.4954 2.26613 8.09884 1.77606 8.09884C1.28599 8.09884 0.889438 8.4954 0.889438 8.98547V11.5978C0.889384 11.6024 0.886841 11.6062 0.886841 11.6107C0.886841 11.9782 1.10996 12.2931 1.42826 12.4277C1.53514 12.4733 1.65241 12.4991 1.77606 12.4991C1.77909 12.4991 1.78163 12.4974 1.78466 12.4973H4.76321V14.4316H1.78466C1.78163 14.4316 1.77909 14.4299 1.77606 14.4299C1.65241 14.4299 1.53514 14.4556 1.42826 14.5012C1.10996 14.6357 0.886841 14.9507 0.886841 15.3182C0.886841 15.3228 0.889384 15.3266 0.889438 15.3311V17.9435C0.889438 18.4335 1.28599 18.8301 1.77606 18.8301C2.26613 18.8301 2.66268 18.4335 2.66268 17.9435V16.2049H4.76321V18.172C4.76321 20.283 6.48104 21.9999 8.59197 21.9999H18.0071C20.1181 21.9999 21.8359 20.283 21.8359 18.172V16.2049H23.9364V17.9435C23.9364 18.4335 24.333 18.8301 24.823 18.8301C25.3131 18.8301 25.7097 18.4335 25.7097 17.9435V15.3311C25.7097 15.3266 25.7123 15.3228 25.7123 15.3182C25.7123 14.9507 25.4892 14.6357 25.1709 14.5012ZM10.573 4.63807C10.573 3.13497 11.7964 1.9124 13.2995 1.9124C14.8026 1.9124 16.0261 3.13497 16.0261 4.63807V4.92813H10.573V4.63807ZM20.0626 18.172C20.0626 19.3046 19.1405 20.2267 18.0071 20.2267H8.59197C7.45858 20.2267 6.53646 19.3046 6.53646 18.172V8.75688C6.53646 7.6235 7.45858 6.70137 8.59197 6.70137H18.0071C19.1405 6.70137 20.0626 7.6235 20.0626 8.75688V18.172Z" fill="white"/>
</svg>
