<svg width="106" height="20" viewBox="0 0 106 20" fill="none" xmlns="http://www.w3.org/2000/svg">
<path d="M19.8752 0H0V19.9837H19.8752V0Z" fill="#FF8622"/>
<path d="M41.4059 0H21.5308V19.9837H41.4059V0Z" fill="#FF8622"/>
<path d="M62.9387 0H43.0635V19.9837H62.9387V0Z" fill="#FF8622"/>
<path d="M84.4694 0H64.5942V19.9837H84.4694V0Z" fill="#FF8622"/>
<path d="M106.001 0H86.1256V19.9837H106.001V0Z" fill="#343434"/>
<path d="M9.93776 13.4685L12.9604 12.6983L14.2233 16.6118L9.93776 13.4685ZM16.8941 8.41013H11.5733L9.93776 3.37256L8.3022 8.41013H2.98145L7.28773 11.5326L5.65217 16.5702L9.95846 13.4477L12.6085 11.5326L16.8941 8.41013Z" fill="white"/>
<path d="M31.4685 13.4685L34.4912 12.6983L35.7541 16.6118L31.4685 13.4685ZM38.4248 8.41013H33.1041L31.4685 3.37256L29.833 8.41013H24.5122L28.8185 11.5326L27.1829 16.5702L31.4892 13.4477L34.1392 11.5326L38.4248 8.41013Z" fill="white"/>
<path d="M53.0017 13.4685L56.0244 12.6983L57.2873 16.6118L53.0017 13.4685ZM59.958 8.41013H54.6373L53.0017 3.37256L51.3662 8.41013H46.0454L50.3517 11.5326L48.7161 16.5702L53.0224 13.4477L55.6724 11.5326L59.958 8.41013Z" fill="white"/>
<path d="M74.532 13.4685L77.5547 12.6983L78.8176 16.6118L74.532 13.4685ZM81.4883 8.41013H76.1676L74.532 3.37256L72.8964 8.41013H67.5757L71.882 11.5326L70.2464 16.5702L74.5527 13.4477L77.2027 11.5326L81.4883 8.41013Z" fill="white"/>
<path d="M96.0628 13.4685L99.0854 12.6983L100.348 16.6118L96.0628 13.4685ZM103.019 8.41013H97.6983L96.0628 3.37256L94.4272 8.41013H89.1064L93.4127 11.5326L91.7772 16.5702L96.0835 13.4477L98.7335 11.5326L103.019 8.41013Z" fill="white"/>
</svg>
